<svg width="40px" height="40px" viewBox="0 0 200 200" fill="none" xmlns="http://www.w3.org/2000/svg">
<path d="M158.334 75L168.75 52.0833L191.667 41.6667L168.75 31.25L158.334 8.33334L147.917 31.25L125 41.6667L147.917 52.0833L158.334 75ZM95.8335 79.1667L75.0002 33.3333L54.1668 79.1667L8.3335 100L54.1668 120.833L75.0002 166.667L95.8335 120.833L141.667 100L95.8335 79.1667ZM158.334 125L147.917 147.917L125 158.333L147.917 168.75L158.334 191.667L168.75 168.75L191.667 158.333L168.75 147.917L158.334 125Z" fill="url(#paint0_linear_4772_11939)"/>
<defs>
<linearGradient id="paint0_linear_4772_11939" x1="100" y1="8.33334" x2="100" y2="191.667" gradientUnits="userSpaceOnUse">
<stop stop-color="#5855D7"/>
<stop offset="1" stop-color="#CC5CE7"/>
</linearGradient>
</defs>
</svg>
