<svg width="46" height="46" viewBox="0 0 46 46" fill="none" xmlns="http://www.w3.org/2000/svg">
<path d="M40.2476 38.096H37.6995V36.104H40.2476C40.7043 36.104 41.0649 35.744 41.0649 35.288C41.0649 34.832 40.7043 34.472 40.2476 34.472H37.6995V34.184C37.6995 33.728 37.339 33.368 36.8822 33.368C34.839 33.368 33.3726 34.28 32.8438 35.792C32.7717 35.768 32.6995 35.744 32.6034 35.744H7.6755V7.88H37.7957V27.08C37.7957 27.824 38.4207 28.448 39.1659 28.448C39.9111 28.448 40.5361 27.848 40.5361 27.08V6.512C40.5361 5.768 39.9111 5.144 39.1659 5.144H6.30531C5.56012 5.144 4.93512 5.744 4.93512 6.512V37.112C4.93512 37.856 5.53608 38.48 6.30531 38.48H32.6034C32.6755 38.48 32.7476 38.456 32.8197 38.432C33.4207 40.184 35.1995 40.856 36.8822 40.856C37.339 40.856 37.6995 40.496 37.6995 40.04V39.752H40.2476C40.7043 39.752 41.0649 39.392 41.0649 38.936C41.0649 38.48 40.7043 38.096 40.2476 38.096ZM36.0649 39.152C35.1755 38.984 34.238 38.48 34.238 37.112C34.238 35.72 35.1755 35.24 36.0649 35.072V39.152Z" fill="white"/>
<path d="M17.7818 13.664C17.7818 12.1183 16.527 10.8508 14.9967 10.8508C13.4664 10.8508 12.2116 12.1183 12.2116 13.664C12.2116 15.2097 13.4664 16.4772 14.9967 16.4772C16.527 16.4772 17.7818 15.2097 17.7818 13.664Z" fill="white"/>
<path d="M33.6048 13.664C33.6048 12.1183 32.35 10.8508 30.8197 10.8508C29.2894 10.8508 28.0346 12.1183 28.0346 13.664C28.0346 15.2097 29.2894 16.4772 30.8197 16.4772C32.35 16.4772 33.6048 15.2097 33.6048 13.664Z" fill="white"/>
<path d="M23.4131 29.4919C20.322 29.4919 17.7817 29.0282 17.6287 29.0282C16.5881 28.8427 15.9148 27.8535 16.0984 26.8024C16.2821 25.7513 17.2308 25.0712 18.302 25.2567C18.3632 25.2567 23.5662 26.1841 27.6367 25.2567C28.6773 25.0403 29.6873 25.6895 29.9015 26.7097C30.1157 27.7608 29.473 28.7809 28.463 28.9973C26.7797 29.3683 25.0352 29.4919 23.4131 29.4919Z" fill="white"/>
</svg>
