<svg width="57" height="56" viewBox="0 0 57 56" fill="none" xmlns="http://www.w3.org/2000/svg">
<rect width="56.4032" height="56" rx="8" fill="white"/>
<path fill-rule="evenodd" clip-rule="evenodd" d="M47.4893 44.9086H44.6398V42.6774H47.4893C48 42.6774 48.4032 42.2742 48.4032 41.7634C48.4032 41.2527 48 40.8495 47.4893 40.8495H44.6398V40.5269C44.6398 40.0161 44.2366 39.6129 43.7258 39.6129C41.4409 39.6129 39.8011 40.6344 39.2097 42.328C39.129 42.3011 39.0484 42.2742 38.9409 42.2742H11.0645V11.0645H44.7473V32.5699C44.7473 33.4032 45.4462 34.1022 46.2796 34.1022C47.1129 34.1022 47.8118 33.4301 47.8118 32.5699V9.53226C47.8118 8.69892 47.1129 8 46.2796 8H9.53226C8.69893 8 8 8.67204 8 9.53226V43.8065C8 44.6398 8.67204 45.3387 9.53226 45.3387H38.9409C39.0215 45.3387 39.1022 45.3118 39.1828 45.2849C39.8548 47.2473 41.8441 48 43.7258 48C44.2366 48 44.6398 47.5968 44.6398 47.086V46.7634H47.4893C48 46.7634 48.4032 46.3602 48.4032 45.8495C48.4032 45.3387 48 44.9086 47.4893 44.9086ZM42.8118 46.0914C41.8172 45.9032 40.7688 45.3387 40.7688 43.8065C40.7688 42.2473 41.8172 41.7097 42.8118 41.5215V46.0914ZM21.1721 17.4355C22.5162 17.4355 23.6183 18.5377 23.6183 19.8818C23.6183 21.2259 22.5162 22.328 21.1721 22.328C19.828 22.328 18.7258 21.2259 18.7258 19.8818C18.7258 18.5377 19.828 17.4355 21.1721 17.4355ZM35.0699 17.4355C36.414 17.4355 37.5161 18.5377 37.5161 19.8818C37.5161 21.2259 36.414 22.328 35.0699 22.328C33.7258 22.328 32.6237 21.2259 32.6237 19.8818C32.6237 18.5377 33.7258 17.4355 35.0699 17.4355ZM23.7559 33.2772C24.4465 33.3754 26.3436 33.6452 28.5645 33.6452C29.9893 33.6452 31.5215 33.5377 33 33.2151C33.8871 33.027 34.4516 32.1399 34.2634 31.2259C34.0753 30.3388 33.1882 29.7743 32.2742 29.9624C28.9577 30.7105 24.7852 30.0707 24.1558 29.9742C24.1067 29.9667 24.0792 29.9624 24.0753 29.9624C23.1344 29.8011 22.3011 30.3925 22.1398 31.3065C21.9785 32.2205 22.5699 33.0807 23.4839 33.242C23.5083 33.242 23.6023 33.2554 23.7559 33.2772Z" fill="#212528"/>
</svg>
