<svg width="366" height="270" viewBox="0 0 366 270" fill="none" xmlns="http://www.w3.org/2000/svg">
<path d="M217.009 42.1321C202.694 39.0805 187.811 37.6179 173.26 38.5502C160.362 39.3765 145.742 41.6319 135.364 49.7106C130.417 53.5606 124.519 60.4785 122.901 66.5814C122.901 66.5822 114.385 98.7054 97.3532 105.589C80.3214 112.473 68.4937 229.954 197.652 218.482C197.652 218.482 273.513 215.475 278.08 128.88C279.184 107.962 278.567 84.965 265.349 67.4736C255.219 54.0698 241.027 48.11 224.718 43.9398C222.171 43.2884 219.599 42.6842 217.009 42.1321Z" fill="#F4F7FA"/>
<path d="M210.727 113.453L211.591 117.886C209.664 118.651 207.826 119.568 206.098 120.636L203.147 117.241C202.341 116.314 200.937 116.228 200.009 117.047L194.202 122.176C193.272 122.997 193.17 124.416 193.974 125.346L196.95 128.788C195.67 130.4 194.527 132.12 193.536 133.93L189.225 132.461C188.063 132.065 186.792 132.701 186.386 133.882L183.842 141.28C183.434 142.465 184.048 143.749 185.212 144.148L189.538 145.629C189.217 147.653 189.074 149.723 189.105 151.819L184.579 152.744C183.364 152.992 182.565 154.192 182.795 155.426L184.233 163.153C184.463 164.391 185.638 165.194 186.856 164.945L191.395 164.017C192.129 165.984 193.016 167.862 194.054 169.629L190.564 172.738C189.622 173.576 189.518 175.029 190.33 175.983L195.421 181.959C196.236 182.917 197.662 183.011 198.604 182.169L202.094 179.051C203.693 180.369 205.404 181.542 207.206 182.559L205.704 187.031C205.297 188.242 205.925 189.557 207.107 189.968L214.505 192.537C215.69 192.948 216.978 192.297 217.382 191.083L218.86 186.645C220.889 186.969 222.965 187.104 225.066 187.059L225.961 191.653C226.206 192.91 227.401 193.727 228.63 193.476L236.317 191.905C237.546 191.654 238.34 190.431 238.092 189.174L237.19 184.619C239.16 183.844 241.037 182.907 242.8 181.815L245.794 185.277C246.625 186.239 248.06 186.333 248.997 185.488L254.855 180.21C255.791 179.367 255.874 177.907 255.042 176.949L252.057 173.516C253.36 171.856 254.514 170.082 255.509 168.217L259.758 169.672C260.946 170.079 262.226 169.432 262.617 168.228L265.058 160.712C265.448 159.512 264.803 158.213 263.618 157.809L259.41 156.375C259.711 154.304 259.824 152.187 259.757 150.048L264.097 149.161C265.316 148.912 266.097 147.709 265.842 146.476L264.252 138.78C263.998 137.552 262.808 136.758 261.593 137.006L257.265 137.89C256.489 135.911 255.559 134.026 254.476 132.259L257.763 129.322C258.688 128.496 258.769 127.07 257.945 126.136L252.805 120.309C251.985 119.379 250.571 119.292 249.648 120.114L246.34 123.06C244.72 121.768 242.992 120.619 241.175 119.632L242.58 115.413C242.971 114.239 242.341 112.969 241.173 112.577L233.877 110.126C232.712 109.734 231.448 110.366 231.055 111.538L229.635 115.766C227.627 115.469 225.575 115.352 223.499 115.416L222.63 111.021C222.39 109.811 221.22 109.031 220.015 109.277L212.481 110.817C211.277 111.063 210.491 112.243 210.727 113.453ZM202.13 155.481C199.759 143.051 207.755 131.005 219.975 128.508C232.196 126.011 244.122 133.986 246.627 146.388C249.147 158.865 241.186 171.083 228.831 173.607C216.476 176.132 204.516 167.986 202.13 155.481Z" fill="#D8DEE8"/>
<path d="M249.869 93.6138L250.123 94.9175C249.556 95.1424 249.015 95.4121 248.507 95.7262L247.639 94.7277C247.402 94.4552 246.99 94.4297 246.717 94.6707L245.009 96.179C244.735 96.4204 244.705 96.8379 244.942 97.1113L245.817 98.1237C245.441 98.5978 245.104 99.1035 244.813 99.6359L243.545 99.204C243.203 99.0875 242.83 99.2745 242.71 99.6217L241.962 101.797C241.842 102.146 242.023 102.523 242.365 102.641L243.637 103.076C243.543 103.671 243.501 104.28 243.51 104.897L242.179 105.169C241.822 105.242 241.587 105.595 241.654 105.957L242.077 108.23C242.145 108.594 242.49 108.83 242.849 108.757L244.183 108.484C244.399 109.063 244.66 109.615 244.965 110.135L243.939 111.049C243.662 111.295 243.631 111.722 243.87 112.003L245.367 113.761C245.607 114.042 246.026 114.07 246.304 113.822L247.33 112.905C247.8 113.293 248.303 113.638 248.833 113.937L248.392 115.252C248.272 115.608 248.457 115.995 248.804 116.116L250.98 116.871C251.328 116.992 251.707 116.801 251.826 116.444L252.261 115.139C252.857 115.234 253.468 115.274 254.086 115.26L254.349 116.611C254.421 116.981 254.772 117.221 255.134 117.147L257.394 116.685C257.756 116.612 257.989 116.252 257.916 115.882L257.651 114.543C258.231 114.315 258.783 114.039 259.301 113.718L260.182 114.736C260.426 115.019 260.848 115.047 261.124 114.798L262.846 113.246C263.121 112.998 263.146 112.569 262.901 112.287L262.024 111.277C262.407 110.789 262.746 110.267 263.039 109.719L264.288 110.147C264.637 110.267 265.014 110.076 265.129 109.722L265.847 107.512C265.962 107.159 265.772 106.777 265.423 106.658L264.186 106.237C264.274 105.627 264.308 105.005 264.288 104.376L265.564 104.115C265.923 104.042 266.152 103.688 266.078 103.325L265.61 101.062C265.535 100.701 265.185 100.467 264.828 100.54L263.555 100.801C263.327 100.218 263.053 99.6639 262.735 99.1442L263.702 98.2806C263.973 98.0378 263.997 97.6183 263.755 97.3437L262.243 95.63C262.002 95.3565 261.586 95.3308 261.315 95.5726L260.342 96.4391C259.866 96.059 259.357 95.7212 258.823 95.4308L259.236 94.1901C259.351 93.8449 259.166 93.4716 258.822 93.3561L256.677 92.6353C256.334 92.5201 255.963 92.706 255.847 93.0504L255.429 94.294C254.839 94.2064 254.235 94.1722 253.625 94.191L253.369 92.8985C253.299 92.5428 252.955 92.3133 252.6 92.3857L250.385 92.8385C250.03 92.9109 249.799 93.258 249.869 93.6138ZM247.34 105.974C246.643 102.318 248.994 98.7757 252.588 98.0413C256.182 97.3069 259.69 99.6522 260.426 103.3C261.168 106.969 258.826 110.562 255.193 111.304C251.559 112.047 248.042 109.651 247.34 105.974Z" fill="#D8DEE8"/>
<path d="M153.206 157.819C155.808 149.872 158.457 137.74 155.356 124.27C151.795 108.803 143.908 105.709 136.826 89.1761C126.716 65.5758 138.158 48.4805 127.692 41.2674C122.588 37.7499 114.563 37.747 109.615 41.2785C95.4977 51.354 99.3678 95.2404 121.766 112.366C131.896 120.111 140.735 119.193 148.337 129.215C155.054 138.072 154.527 149.755 153.206 157.819Z" fill="url(#paint0_linear_92_23714)"/>
<mask id="mask0_92_23714" style="mask-type:luminance" maskUnits="userSpaceOnUse" x="101" y="38" width="56" height="120">
<path d="M153.206 157.819C155.808 149.872 158.457 137.74 155.356 124.27C151.795 108.803 143.908 105.709 136.826 89.1761C126.716 65.5758 138.158 48.4805 127.692 41.2674C122.588 37.7499 114.563 37.747 109.615 41.2785C95.4977 51.354 99.3678 95.2404 121.766 112.366C131.896 120.111 140.735 119.193 148.337 129.215C155.054 138.072 154.527 149.755 153.206 157.819Z" fill="white"/>
</mask>
<g mask="url(#mask0_92_23714)">
<path d="M154.797 137.823C153.948 134.481 152.807 131.197 151.405 128.061C148.184 120.856 144.628 116.893 140.127 111.875C137.189 108.6 133.859 104.889 130.011 99.5667C122.812 89.6097 120.578 86.1116 118.576 80.4729C114.614 69.3152 115.223 59.3114 115.938 54.3414C116.953 47.2908 119.313 40.5815 122.955 34.3994L123.174 34.5291C119.549 40.6821 117.2 47.3603 116.19 54.3778C115.478 59.3246 114.872 69.2815 118.815 80.3876C120.807 85.9961 123.035 89.4836 130.217 99.4173C134.058 104.728 137.383 108.435 140.316 111.705C144.832 116.739 148.4 120.716 151.637 127.957C153.045 131.106 154.191 134.404 155.043 137.76L154.797 137.823Z" fill="white"/>
<path d="M116.643 72.5919L116.459 72.492C116.417 72.4692 112.236 70.1663 108.521 65.4799C105.091 61.153 101.364 53.8503 103.087 43.6326L103.338 43.6752C101.631 53.7956 105.32 61.0282 108.714 65.3136C111.956 69.4066 115.555 71.6657 116.397 72.1627C116.63 64.0005 121.852 58.7112 126.213 55.7034C130.971 52.4223 135.759 51.0766 135.806 51.0634L135.874 51.309C135.827 51.3221 131.074 52.6588 126.352 55.9175C122.004 58.9173 116.791 64.2089 116.647 72.3821L116.643 72.5919Z" fill="white"/>
<path d="M117.834 98.8419C113.605 98.8419 108.637 97.8007 104.048 94.2219L104.204 94.0208C114.502 102.053 126.747 97.1556 127.963 96.6369C125.883 88.5777 127.723 82.6324 129.638 79.0586C131.724 75.1667 134.352 73.1658 134.378 73.1462L134.531 73.35C134.505 73.3695 131.915 75.3435 129.856 79.19C127.958 82.7375 126.136 88.6512 128.236 96.678L128.264 96.7815L128.166 96.826C128.091 96.8609 123.666 98.8419 117.834 98.8419Z" fill="white"/>
<path d="M127.266 114.215C124.095 114.215 120.299 113.638 115.883 112.021L115.97 111.781C130.44 117.079 138.165 111.145 138.962 110.482C135.441 102.227 140.4 88.8764 140.451 88.742L140.689 88.8321C140.639 88.966 135.681 102.314 139.233 110.467L139.269 110.55L139.202 110.612C139.147 110.662 135.131 114.215 127.266 114.215Z" fill="white"/>
</g>
<path d="M157.736 148.234C158.561 143.231 159.036 135.417 154.972 128.429C147.881 116.238 134.958 120.282 122.587 107.221C112.61 96.6874 115.754 88.5001 104.699 81.4993C102.848 80.3275 93.0702 73.879 85.7989 77.7631C81.7015 79.9517 80.2169 84.4448 79.9382 85.2884C75.7262 98.0366 88.6847 117.996 105.575 127.124C115.279 132.369 118.41 130.655 135.487 136.772C145.521 140.366 153.056 144.995 157.736 148.234Z" fill="url(#paint1_linear_92_23714)"/>
<mask id="mask1_92_23714" style="mask-type:luminance" maskUnits="userSpaceOnUse" x="79" y="76" width="80" height="73">
<path d="M157.736 148.234C158.561 143.231 159.036 135.417 154.972 128.429C147.881 116.238 134.958 120.282 122.587 107.221C112.61 96.6874 115.754 88.5001 104.699 81.4993C102.848 80.3275 93.0702 73.879 85.7989 77.7631C81.7015 79.9517 80.2169 84.4448 79.9382 85.2884C75.7262 98.0366 88.6847 117.996 105.575 127.124C115.279 132.369 118.41 130.655 135.487 136.772C145.521 140.366 153.056 144.995 157.736 148.234Z" fill="white"/>
</mask>
<g mask="url(#mask1_92_23714)">
<path d="M159.16 154.259C156.689 142.365 152.012 134.379 145.259 130.524C141.964 128.644 139.332 128.345 136.545 128.029C133.499 127.684 130.35 127.326 126.185 124.802C122.131 122.346 120.682 119.987 118.846 117.001C117.216 114.348 115.187 111.046 110.636 106.65C106.645 102.796 103.738 100.991 101.173 99.3993C98.3651 97.6565 96.1473 96.2799 93.5725 92.8988C89.3777 87.3907 87.1854 80.3333 87.0566 71.9226L87.311 71.9186C87.4389 80.2736 89.6136 87.2803 93.7747 92.7441C96.3211 96.0878 98.5213 97.4536 101.307 99.1826C103.883 100.782 106.802 102.594 110.812 106.466C115.387 110.885 117.425 114.202 119.063 116.867C120.88 119.824 122.315 122.16 126.316 124.584C130.434 127.079 133.555 127.433 136.573 127.776C139.387 128.095 142.045 128.396 145.385 130.303C152.204 134.195 156.922 142.238 159.409 154.207L159.16 154.259Z" fill="white"/>
<path d="M101.321 100.134C92.6436 100.134 86.1659 96.8011 82.2066 93.9419C77.7462 90.721 75.429 87.3857 75.406 87.3524L75.6156 87.2079C75.6382 87.241 77.9357 90.5458 82.3634 93.7412C86.4214 96.6697 93.1494 100.1 102.187 99.8676C101.644 98.1161 97.1156 82.7748 102.973 76.1887L103.163 76.3582C97.0739 83.2049 102.426 99.7838 102.481 99.9506L102.534 100.113L102.364 100.118C102.013 100.128 101.665 100.134 101.321 100.134Z" fill="white"/>
<path d="M100.654 114.276C95.1045 114.276 88.026 113.132 80.9236 108.865L81.0544 108.646C89.8858 113.952 98.6816 114.397 104.506 113.837C110.287 113.28 114.364 111.65 115.043 111.364C112.691 102.668 114.787 90.4056 114.808 90.2822L115.059 90.326C115.038 90.4494 112.934 102.757 115.318 111.404L115.347 111.509L115.247 111.554C115.204 111.573 110.893 113.476 104.539 114.089C103.358 114.204 102.055 114.276 100.654 114.276Z" fill="white"/>
<path d="M108.181 134.469C107.757 134.469 107.33 134.464 106.898 134.455L106.903 134.2C115.784 134.392 122.619 132.542 126.788 130.955C130.769 129.442 133.138 127.878 133.659 127.517C127.144 119.406 129.697 106.166 129.723 106.033L129.973 106.083C129.946 106.216 127.396 119.455 133.942 127.462L134.027 127.566L133.919 127.645C133.824 127.715 124.466 134.469 108.181 134.469Z" fill="white"/>
</g>
<path d="M157.91 143.984C155.133 141.985 150.588 139.09 144.475 136.919C133.601 133.056 128.618 135.335 124.015 130.728C119.25 125.96 122.336 121.264 116.632 115.939C116.152 115.491 110.027 109.922 104.485 111.996C100.609 113.447 99.0992 117.859 98.3909 119.93C95.6422 127.965 97.2404 140.209 105.795 146.248C113.906 151.974 124.175 149.245 127.435 148.356C133.155 146.795 134.511 144.561 140.325 143.149C147.396 141.431 153.752 142.703 157.91 143.984Z" fill="url(#paint2_linear_92_23714)"/>
<mask id="mask2_92_23714" style="mask-type:luminance" maskUnits="userSpaceOnUse" x="97" y="111" width="61" height="39">
<path d="M157.91 143.984C155.133 141.985 150.588 139.09 144.475 136.919C133.601 133.056 128.618 135.335 124.015 130.728C119.25 125.96 122.336 121.264 116.632 115.939C116.152 115.491 110.027 109.922 104.485 111.996C100.609 113.447 99.0992 117.859 98.3909 119.93C95.6422 127.965 97.2404 140.209 105.795 146.248C113.906 151.974 124.175 149.245 127.435 148.356C133.155 146.795 134.511 144.561 140.325 143.149C147.396 141.431 153.752 142.703 157.91 143.984Z" fill="white"/>
</mask>
<g mask="url(#mask2_92_23714)">
<path d="M160.17 145.821C153.447 140.892 146.89 138.569 140.679 138.918C137.969 139.07 136.061 139.676 134.216 140.263C131.874 141.007 129.663 141.71 125.985 141.556C119.378 141.279 113.736 139.028 110.099 135.217C104.467 129.317 103.216 119.431 106.912 110.032L107.149 110.126C103.489 119.433 104.719 129.212 110.283 135.041C113.875 138.804 119.455 141.028 125.995 141.301C129.627 141.453 131.819 140.757 134.139 140.02C135.999 139.429 137.923 138.817 140.665 138.663C146.936 138.312 153.549 140.651 160.32 145.616L160.17 145.821Z" fill="white"/>
<path d="M107.609 131.457L107.425 131.391C107.316 131.353 96.6004 127.427 95.9348 119.102L96.1884 119.081C96.7933 126.647 105.912 130.524 107.327 131.081C106.686 120.348 119.624 114.422 119.756 114.363L119.86 114.596C119.729 114.654 106.792 120.581 107.594 131.262L107.609 131.457Z" fill="white"/>
<path d="M109.632 144.163C105.741 144.163 100.765 143.208 95.0833 139.968L95.2092 139.747C103.174 144.289 109.733 144.304 113.833 143.516C117.78 142.758 120.26 141.135 120.776 140.774C114.562 132.024 122.137 121.637 122.214 121.533L122.418 121.685C122.341 121.788 114.818 132.109 121.056 140.728L121.129 140.829L121.03 140.904C121.004 140.924 118.374 142.903 113.88 143.767C112.668 144 111.243 144.163 109.632 144.163Z" fill="white"/>
</g>
<path d="M286.196 213.58L85.6826 211.814V217.039C85.6826 218.457 86.5572 219.663 87.7416 219.878L144.441 230.168C145.114 230.29 145.796 230.322 146.475 230.264L284.017 218.533C285.245 218.428 286.196 217.218 286.196 215.761V213.58Z" fill="url(#paint3_linear_92_23714)"/>
<path d="M213.431 205.109L87.7561 214.668C85.5072 214.839 83.6787 213.022 83.6787 210.608V113.909C83.6787 111.496 85.5072 109.539 87.7561 109.539H213.431C215.283 109.539 216.781 111.308 216.781 113.49V200.904C216.781 203.086 215.283 204.968 213.431 205.109Z" fill="url(#paint4_linear_92_23714)"/>
<path d="M215.434 205.109L89.7598 214.668C87.5108 214.839 85.6824 213.022 85.6824 210.608V113.909C85.6824 111.496 87.5108 109.539 89.7598 109.539H215.434C217.287 109.539 218.785 111.308 218.785 113.49V200.904C218.785 203.086 217.287 204.968 215.434 205.109Z" fill="url(#paint5_linear_92_23714)"/>
<path d="M211.519 198.946L94.4667 207.25C92.6366 207.38 91.1494 205.888 91.1494 203.917V119.257C91.1494 117.287 92.6366 115.683 94.4667 115.675L211.519 115.153C213.048 115.147 214.284 116.596 214.284 118.391V195.501C214.284 197.295 213.048 198.838 211.519 198.946Z" fill="url(#paint6_linear_92_23714)"/>
<path d="M157.036 112.184C157.036 113.083 156.389 113.813 155.59 113.816C154.79 113.818 154.141 113.09 154.141 112.19C154.141 111.289 154.79 110.559 155.59 110.558C156.389 110.558 157.036 111.286 157.036 112.184Z" fill="white"/>
<path opacity="0.48" d="M185.155 178.588C175.467 172.977 167.849 180.087 160.497 173.072C156.04 168.82 158.228 165.649 152.744 159.293C146.669 152.255 142.714 154.621 136.61 148.286C128.891 140.276 132.751 134.044 126.102 128.293C118.036 121.316 109.337 127.773 101.659 121.082C98.347 118.197 96.53 114.001 95.5811 109.539H88.068C86.7515 109.539 85.6824 110.688 85.6824 112.104V212.341C85.6824 213.758 86.7515 214.825 88.068 214.724L216.151 204.939C216.78 204.891 217.337 204.496 217.695 203.923C208.319 203.555 202.558 200.172 198.876 196.675C191.673 189.833 192.923 183.086 185.155 178.588Z" fill="white"/>
<path d="M220.443 204.676L85.6824 214.738L144.441 225.401C145.114 225.523 145.796 225.555 146.475 225.498L286.196 213.58L222.587 204.744C221.876 204.645 221.158 204.623 220.443 204.676Z" fill="url(#paint7_linear_92_23714)"/>
<path opacity="0.3" d="M105.346 214.991L217.539 206.489L252.262 211.273L141.035 220.361L105.346 214.991Z" fill="url(#paint8_linear_92_23714)"/>
<g opacity="0.75">
<path d="M115.031 122.323L102.141 122.368V118.188H115.031V122.323Z" fill="white"/>
<path d="M182.566 122.086L123.218 122.294V118.188H182.566V122.086Z" fill="white"/>
<path d="M135.659 129.19L123.218 129.308V125.202L135.659 125.127V129.19Z" fill="white"/>
<path d="M200.922 128.571L143.564 129.115V125.08L200.922 124.737V128.571Z" fill="white"/>
<path d="M135.659 136.129L123.218 136.322V132.216L135.659 132.067V136.129Z" fill="white"/>
<path d="M200.922 135.121L143.564 136.007V131.972L200.922 131.287V135.121Z" fill="white"/>
<path d="M115.031 143.511L102.141 143.787V139.607L115.031 139.376V143.511Z" fill="white"/>
<path d="M182.566 142.064L123.218 143.335V139.229L182.566 138.165V142.064Z" fill="white"/>
<path d="M135.659 150.008L123.218 150.349V146.243L135.659 145.946V150.008Z" fill="white"/>
<path d="M200.922 148.22L143.564 149.792V145.757L200.922 144.386V148.22Z" fill="white"/>
<path d="M135.659 156.948L123.218 157.363V153.257L135.659 152.885V156.948Z" fill="white"/>
<path d="M200.922 154.769L143.564 156.684V152.649L200.922 150.935V154.769Z" fill="white"/>
<path d="M135.659 163.887L123.218 164.377V160.271L135.659 159.824V163.887Z" fill="white"/>
<path d="M200.922 161.319L143.564 163.576V159.541L200.922 157.484V161.319Z" fill="white"/>
<path d="M155.766 169.915L143.754 170.46V166.425L155.766 165.923V169.915Z" fill="white"/>
<path d="M209.681 167.471L163.4 169.569V165.603L209.681 163.667V167.471Z" fill="white"/>
<path d="M115.031 178.824L102.141 179.486V175.306L115.031 174.69V178.824Z" fill="white"/>
<path d="M182.566 175.359L123.218 178.404V174.298L182.566 171.461V175.359Z" fill="white"/>
<path d="M135.659 184.705L123.218 185.418V181.312L135.659 180.643V184.705Z" fill="white"/>
<path d="M200.922 180.967L143.564 184.252V180.218L200.922 177.133V180.967Z" fill="white"/>
<path d="M135.659 191.645L123.218 192.432V188.326L135.659 187.582V191.645Z" fill="white"/>
<path d="M200.922 187.516L143.564 191.145V187.11L200.922 183.682V187.516Z" fill="white"/>
<path d="M115.031 200.012L102.141 200.905V196.725L115.031 195.878V200.012Z" fill="white"/>
<path d="M182.566 195.337L123.218 199.445V195.339L182.566 191.438V195.337Z" fill="white"/>
</g>
<path d="M227.567 61.763L117.858 58.1504C114.179 58.0293 111.184 60.9373 111.184 64.6463V171.793C111.184 175.502 114.179 178.38 117.858 178.223L227.567 173.529C230.74 173.393 233.303 170.507 233.303 167.083V68.1525C233.303 64.728 230.74 61.8675 227.567 61.763Z" fill="url(#paint9_linear_92_23714)"/>
<path opacity="0.74" d="M117.858 176.088C115.355 176.191 113.321 174.232 113.321 171.71V64.7076C113.321 62.1863 115.355 60.2067 117.858 60.2857L227.567 63.7506C229.728 63.8188 231.476 65.7661 231.476 68.1001V167.153C231.476 169.487 229.728 171.452 227.567 171.541L117.858 176.088Z" fill="white"/>
<path d="M227.567 61.763L117.858 58.1504C114.179 58.0293 111.184 60.9374 111.184 64.6463V69.4636L233.303 72.6004V68.1524C233.303 64.728 230.74 61.8675 227.567 61.763Z" fill="url(#paint10_linear_92_23714)"/>
<path d="M123.05 64.3412C123.05 65.546 122.082 66.4959 120.886 66.4627C119.689 66.4295 118.717 65.4231 118.717 64.215C118.717 63.0069 119.689 62.0571 120.886 62.0937C122.082 62.1301 123.05 63.1363 123.05 64.3412Z" fill="white"/>
<path d="M130.603 64.5611C130.603 65.7601 129.644 66.7056 128.46 66.6728C127.274 66.6398 126.311 65.6384 126.311 64.4361C126.311 63.2338 127.274 62.2884 128.46 62.3246C129.644 62.3607 130.603 63.362 130.603 64.5611Z" fill="white"/>
<path d="M138.084 64.779C138.084 65.9723 137.135 66.9134 135.962 66.8809C134.787 66.8483 133.833 65.8518 133.833 64.6552C133.833 63.4586 134.787 62.5176 135.962 62.5535C137.135 62.5892 138.084 63.5856 138.084 64.779Z" fill="white"/>
<path d="M176.911 82.87L118.963 81.8264V85.2405L176.911 86.1593V82.87Z" fill="white"/>
<path d="M220.477 83.6547V86.8501L226.608 86.9473V83.7651L220.477 83.6547Z" fill="white"/>
<path d="M131.214 93.5919L118.963 93.4611V89.9405L131.214 90.0984V93.5919Z" fill="white"/>
<path d="M196.662 94.29L139.035 93.6752V90.1992L196.662 90.942V94.29Z" fill="white"/>
<path d="M150.979 99.695L139.035 99.6129V96.1368L150.979 96.2455V99.695Z" fill="white"/>
<path d="M214.825 100.134L158.605 99.7475V96.3148L214.825 96.8262V100.134Z" fill="white"/>
<path d="M150.979 105.587L139.035 105.551V102.075L150.979 102.138V105.587Z" fill="white"/>
<path d="M214.825 105.784L158.605 105.611V102.178L214.825 102.476V105.784Z" fill="white"/>
<path d="M131.214 111.494L118.963 111.503V107.982L131.214 108.001V111.494Z" fill="white"/>
<path d="M196.662 111.447L139.035 111.488V108.012L196.662 108.099V111.447Z" fill="white"/>
<path d="M150.979 117.372L139.035 117.426V113.95L150.979 113.923V117.372Z" fill="white"/>
<path d="M214.825 117.084L158.605 117.338V113.905L214.825 113.776V117.084Z" fill="white"/>
<path d="M150.979 123.264L139.035 123.364V119.888L150.979 119.815V123.264Z" fill="white"/>
<path d="M214.825 122.734L158.605 123.201V119.769L214.825 119.427V122.734Z" fill="white"/>
<path d="M150.979 129.157L139.035 129.301V125.825L150.979 125.707V129.157Z" fill="white"/>
<path d="M214.825 128.384L158.605 129.065V125.632L214.825 125.077V128.384Z" fill="white"/>
<path d="M170.434 134.74L158.789 134.925V131.493L170.434 131.334V134.74Z" fill="white"/>
<path d="M223.549 133.896L177.871 134.622V131.232L223.549 130.607V133.896Z" fill="white"/>
<path d="M131.214 141.331L118.963 141.572V138.051L131.214 137.837V141.331Z" fill="white"/>
<path d="M196.662 140.042L139.035 141.177V137.701L196.662 136.694V140.042Z" fill="white"/>
<path d="M150.979 146.834L139.035 147.114V143.638L150.979 143.384V146.834Z" fill="white"/>
<path d="M214.825 145.334L158.605 146.655V143.222L214.825 142.027V145.334Z" fill="white"/>
<path d="M150.979 152.726L139.035 153.052V149.576L150.979 149.277V152.726Z" fill="white"/>
<path d="M214.825 150.985L158.605 152.518V149.086L214.825 147.677V150.985Z" fill="white"/>
<path d="M131.214 159.233L118.963 159.613V156.093L131.214 155.739V159.233Z" fill="white"/>
<path d="M196.662 157.199L139.035 158.99V155.514L196.662 153.851V157.199Z" fill="white"/>
<path d="M150.979 164.511L139.035 164.928V161.451L150.979 161.061V164.511Z" fill="white"/>
<path d="M214.825 162.285L158.605 164.245V160.812L214.825 158.977V162.285Z" fill="white"/>
<g opacity="0.5">
<path d="M184.922 102.953C172.108 84.2697 149.929 90.2141 135.898 69.5708C133.368 65.8478 131.651 62.0596 130.474 58.5659L117.858 58.1504C114.179 58.0293 111.184 60.9374 111.184 64.6463V171.793C111.184 175.502 114.179 178.38 117.858 178.223L223.549 173.701C221.128 170.202 200.04 157.241 194.592 137.341C189.61 119.143 192.653 114.226 184.922 102.953Z" fill="white"/>
</g>
<path d="M179.192 111.547C179.497 111.073 180.054 110.064 180.09 108.71C180.159 106.078 178.211 104.025 177.949 104.143C177.808 104.206 177.987 104.977 178.087 105.319C178.296 106.031 178.52 106.099 178.501 106.426C178.463 107.099 177.493 107.125 176.982 108.018C176.614 108.661 176.585 109.577 176.982 110.301C177.642 111.504 179.129 111.546 179.192 111.547Z" fill="url(#paint11_linear_92_23714)"/>
<path d="M220.807 168.715L220.058 166.133L223.184 163.812L225.133 163.082L223.979 166.694L220.807 168.715Z" fill="url(#paint12_linear_92_23714)"/>
<path d="M216.937 220.717C216.937 220.717 218.647 225.028 218.197 226.939C220.033 226.903 221.221 226.669 221.221 226.669C221.221 226.669 220.483 224.703 220.339 223.729C220.144 222.413 220.159 220.284 220.159 220.284L216.937 220.717Z" fill="url(#paint13_linear_92_23714)"/>
<path d="M198.088 230.799C198.199 230.933 198.395 231.212 198.412 231.591C198.421 231.796 198.374 231.966 198.315 232.121C198.023 232.89 197.565 232.991 197.071 233.807C196.769 234.306 196.826 234.456 196.55 234.681C196.185 234.977 195.744 234.994 195.362 234.999C194.716 235.006 193.786 234.983 192.615 234.843C193.228 234.051 193.881 233.246 194.575 232.433C194.879 232.076 195.183 231.728 195.486 231.388L197.291 230.777C197.556 230.784 197.822 230.792 198.088 230.799Z" fill="#26264F"/>
<path d="M196.588 222.021C196.588 222.021 195.557 227.413 196.869 228.923C197.987 230.433 196.329 229.356 196.329 229.356L194.349 231.087L193.162 233.143C193.162 233.143 194.255 227.866 193.963 225.771C193.672 223.677 193.526 222.265 193.526 222.265L196.588 222.021Z" fill="url(#paint14_linear_92_23714)"/>
<path d="M192.7 163.038C192.7 163.038 189.929 165.522 189.929 175.75C189.929 185.979 191.241 208.189 191.241 208.189L193.341 224.09C193.341 224.09 195.519 224.167 196.977 223.729C198.289 217.738 200.428 207.604 199.407 199.129C198.97 189.924 203.053 178.381 203.053 178.381C203.053 178.381 206.552 190.07 209.031 195.915C211.51 201.759 216.23 220.069 216.667 221.385C219.568 221.648 220.807 220.879 220.807 220.879C220.807 220.879 218.947 201.175 217.197 193.723C215.447 186.271 215.593 168.299 212.677 163.184C206.115 160.554 192.7 163.038 192.7 163.038Z" fill="url(#paint15_linear_92_23714)"/>
<path d="M192.7 163.038C192.7 163.038 189.929 165.522 189.929 175.75C189.929 185.979 191.241 208.188 191.241 208.188L193.342 224.09C193.342 224.09 195.519 224.167 196.977 223.729C198.29 217.738 200.428 207.604 199.407 199.129C198.97 189.924 203.053 178.381 203.053 178.381C203.053 178.381 206.552 190.07 209.031 195.915C211.51 201.759 216.23 220.069 216.667 221.385C219.568 221.648 220.807 220.879 220.807 220.879C220.807 220.879 218.947 201.175 217.197 193.723C215.447 186.271 215.593 168.298 212.677 163.184C206.115 160.554 192.7 163.038 192.7 163.038Z" fill="url(#paint16_linear_92_23714)"/>
<path opacity="0.25" d="M207.092 181.779C207.956 187.406 209.684 190.436 214.003 194.332C217.459 196.929 214.867 202.556 216.163 206.884C216.595 208.183 217.891 209.481 218.323 210.78C219.93 214.001 218.429 217.942 219.158 221.352C220.292 221.196 220.807 220.879 220.807 220.879C220.807 220.879 218.947 201.175 217.197 193.723C215.447 186.271 215.593 168.298 212.677 163.184C206.115 160.554 192.7 163.038 192.7 163.038C192.7 163.038 189.929 165.522 189.929 175.75C189.929 176.58 189.938 177.49 189.954 178.459C192.83 181.01 198.713 181.577 202.341 178.749C202.56 178.585 202.793 178.484 203.034 178.435C203.045 178.402 203.053 178.381 203.053 178.381C203.053 178.381 203.059 178.401 203.068 178.431C204.719 178.129 206.718 180.278 207.092 181.779Z" fill="url(#paint17_linear_92_23714)"/>
<path d="M217.747 228.575C217.747 228.575 217.321 228.575 217.357 229.127C217.392 229.678 217.165 231.575 219.331 231.664C221.497 231.753 221.831 231.511 221.902 231.511C221.973 231.511 221.334 229.696 221.334 229.696L220.642 228.806L218.777 228.611L217.747 228.575Z" fill="#26264F"/>
<path d="M222.551 230.48C222.505 230.021 222.249 229.3 221.991 228.72C221.609 227.858 221.923 227.535 221.557 226.75C221.431 226.478 221.308 226.22 221.041 225.965C220.98 225.907 220.382 225.353 219.511 225.381C219.34 225.387 219.076 225.398 218.791 225.551C218.455 225.73 218.287 225.999 218.143 226.236C217.917 226.608 217.969 226.722 217.621 227.787C217.593 227.872 217.532 228.058 217.485 228.315C217.449 228.511 217.434 228.676 217.428 228.788C217.996 228.788 220.18 228.877 220.642 229.216C221.104 229.554 221.334 230.123 221.334 230.692C221.334 231.262 221.618 231.529 221.903 231.511C222.156 231.495 222.661 231.024 222.551 230.48Z" fill="#444B8C"/>
<path d="M196.311 228.166C196.799 228.173 197.157 228.562 197.427 229.5C197.697 230.438 198.993 231.268 197.481 231.069C195.969 230.871 194.871 233.017 194.332 233.811C193.792 234.604 192.342 235.309 192.378 234.534C192.414 233.758 193.054 233.396 193.234 232.602C193.414 231.809 195.198 228.148 196.311 228.166Z" fill="#444B8C"/>
<path d="M221.954 164.273C222.313 163.273 224.552 156.708 220.933 150.72C217.971 145.818 212.844 144.219 212.113 144.003C207.664 142.686 205.434 144.378 204.03 142.821C201.647 140.179 204.346 131.18 209.566 129.377C215.45 127.346 222.509 135.159 225.369 140.29C229.122 147.023 228.198 153.714 227.981 155.092C227.417 158.673 226.105 161.405 225.133 163.082C224.073 163.479 223.014 163.876 221.954 164.273Z" fill="white"/>
<path d="M206.588 128.107C201.336 127.896 197.286 127.98 194.997 130.271C192.581 132.691 195.023 135.423 194.498 141.754C193.695 151.445 187.532 153.813 187.068 163.646C186.911 166.959 187.471 169.666 187.905 171.297C189.258 172.985 191.472 175.367 194.739 177.359C199.494 180.258 202.251 179.752 209.079 181.625C220.248 184.688 221.242 188.336 226.78 187.406C232.377 186.467 237.288 181.747 236.695 179.155C236.339 177.603 234.083 178.043 231.485 175.675C228.137 172.624 229.428 169.711 226.883 166.432C223.226 161.723 218.132 164.602 215.017 160.52C211.865 156.391 213.115 148.255 215.772 143.82C217.507 140.923 218.25 137.528 219.727 134.491C219.85 134.239 219.992 133.825 219.929 133.308C219.69 131.33 216.399 130.257 213.907 129.469C210.106 128.269 207.02 128.124 206.588 128.107Z" fill="white"/>
<path d="M202.164 127.889L203.2 127.57C203.2 127.57 203.471 128.975 206.802 129.151C208.651 129.151 209.846 128.113 209.846 128.113L210.554 128.63C210.554 128.63 209.001 130.574 206.531 130.524C203.344 130.46 202.164 127.889 202.164 127.889Z" fill="url(#paint18_linear_92_23714)"/>
<path d="M204.274 123.614C204.473 122.071 205.691 121.082 205.957 120.87C207.069 119.984 207.296 119.895 207.678 119.822L208.2 119.743C208.2 119.743 208.228 119.744 208.257 119.745C208.562 119.764 209.478 120.122 209.644 120.239C210.176 120.614 209.784 123.268 208.172 126.568C208.109 126.847 208.045 127.127 207.982 127.406C209.387 127.654 209.735 127.908 209.746 128.111C209.77 128.55 208.232 129.11 206.806 129.147C205.018 129.192 203.12 128.422 203.156 127.846C203.171 127.614 203.508 127.326 204.806 127.044C205.009 126.758 205.212 126.473 205.415 126.187C205.231 125.963 204.127 124.751 204.274 123.614Z" fill="url(#paint19_linear_92_23714)"/>
<path d="M206.484 123.033C206.889 122.79 207.198 123.313 207.007 123.77C206.816 124.227 206.174 124.513 205.785 124.24C205.396 123.968 205.938 123.36 206.484 123.033Z" fill="url(#paint20_linear_92_23714)"/>
<path d="M259.045 123.026C253.707 117.221 241.287 118.813 234.398 123.475C231.197 125.641 229.554 128.199 225.772 128.414C222.896 128.577 218.322 127.494 215.913 124.373C215.61 123.979 214.396 122.33 212.573 120.251C211.77 119.334 210.97 118.473 209.732 118.279C209.417 118.229 208.37 118.059 207.678 118.736C207.117 119.285 206.98 120.24 207.145 120.928C207.245 121.339 207.373 121.382 207.355 121.652C207.303 122.408 205.928 122.738 206.004 123.119C206.059 123.391 206.775 123.292 206.898 123.633C207.033 124.008 206.247 124.33 205.909 125.272C205.277 125.697 204.877 126.753 204.738 128.167C204.535 130.244 204.743 131.933 205.136 133.204C207.028 139.326 208.381 143.706 211.656 146.151C215.992 149.388 219.896 146.399 230.925 145.926C246.028 145.279 249.793 150.409 255.221 146.9C261.998 142.518 264.587 129.052 259.045 123.026Z" fill="url(#paint21_linear_92_23714)"/>
<path d="M179.83 111.178C179.695 112.445 179.24 118.046 183.096 122.775C186.699 127.195 191.801 128.077 192.749 128.221C197.337 128.916 199.315 126.934 200.918 128.285C203.639 130.575 202.193 139.859 197.268 142.36C191.717 145.179 183.658 138.407 180.124 133.715C175.488 127.56 175.49 120.805 175.517 119.41C175.587 115.785 176.514 112.9 177.248 111.105C177.55 111.014 178.009 110.914 178.572 110.933C179.108 110.952 179.541 111.073 179.83 111.178Z" fill="white"/>
<path opacity="0.25" d="M226.948 183.702C225.605 182.322 227.083 179.54 225.099 177.471C223.258 175.552 221.174 177.103 218.21 175.451C214.408 173.332 215.455 169.453 211.824 167.368C209.213 165.868 207.985 167.481 203.926 166.694C199.873 165.91 194.937 163.11 192.499 158.107C191.463 155.981 191.081 153.867 191.03 151.978C189.207 155.241 187.317 158.368 187.068 163.646C186.911 166.959 187.471 169.667 187.905 171.297C189.258 172.985 191.472 175.367 194.739 177.359C199.494 180.258 202.251 179.752 209.079 181.625C220.248 184.688 221.242 188.336 226.78 187.406C230.357 186.806 233.646 184.662 235.405 182.515C230.243 184.818 227.923 184.703 226.948 183.702Z" fill="url(#paint22_linear_92_23714)"/>
<path d="M272.235 70.5689C272.235 50.1986 253.484 34.2963 231.15 35.024C218.431 35.4384 207.365 41.184 200.455 49.6657C200.454 49.6631 200.453 49.6608 200.452 49.6583C200.409 49.711 200.369 49.7658 200.327 49.8187C200.207 49.9671 200.092 50.1182 199.975 50.2683C199.761 50.5419 199.551 50.8173 199.346 51.0965C199.225 51.2614 199.106 51.4273 198.988 51.5942C198.791 51.8727 198.599 52.1541 198.41 52.4377C198.302 52.6 198.193 52.7615 198.088 52.9255C197.877 53.2531 197.675 53.5852 197.476 53.9192C197.404 54.0401 197.328 54.1589 197.258 54.2806C196.996 54.7334 196.744 55.1918 196.503 55.6556C196.439 55.7786 196.381 55.9042 196.319 56.028C196.143 56.3759 195.972 56.7256 195.809 57.0794C195.729 57.2528 195.653 57.428 195.576 57.6028C195.438 57.9159 195.304 58.2306 195.176 58.5478C195.102 58.7321 195.029 58.9167 194.958 59.1023C194.833 59.4278 194.715 59.7559 194.6 60.0856C194.54 60.2581 194.478 60.4295 194.421 60.6032C194.285 61.0181 194.158 61.4365 194.038 61.8576C194.013 61.9455 193.984 62.0319 193.96 62.12C193.82 62.6279 193.694 63.1406 193.579 63.6568C193.545 63.8088 193.517 63.9625 193.485 64.1151C193.408 64.4854 193.335 64.8566 193.271 65.2308C193.238 65.4213 193.209 65.6127 193.18 65.8042C193.127 66.1504 193.079 66.4979 193.037 66.8471C193.014 67.043 192.991 67.2389 192.971 67.4357C192.933 67.8039 192.905 68.1743 192.88 68.5457C192.869 68.7185 192.854 68.8904 192.845 69.0639C192.818 69.6066 192.801 70.1516 192.801 70.7005C192.801 83.7723 200.701 95.3029 212.546 101.477C213.635 102.044 214.758 102.567 215.912 103.042C216.49 103.28 217.076 103.506 217.669 103.72C221.839 105.221 226.377 106.11 231.15 106.25C231.15 106.25 231.15 106.25 231.15 106.25C231.808 106.269 232.462 106.272 233.113 106.263C233.333 106.26 233.55 106.247 233.769 106.241C234.199 106.229 234.63 106.216 235.058 106.191C235.319 106.176 235.578 106.152 235.838 106.132C236.22 106.103 236.601 106.074 236.98 106.036C237.258 106.007 237.533 105.972 237.809 105.939C238.168 105.895 238.526 105.851 238.881 105.799C239.165 105.757 239.447 105.71 239.729 105.663C240.073 105.606 240.416 105.547 240.757 105.481C241.042 105.427 241.326 105.369 241.609 105.309C241.943 105.238 242.275 105.163 242.606 105.085C242.89 105.018 243.172 104.949 243.454 104.876C243.78 104.792 244.105 104.702 244.428 104.61C244.707 104.531 244.985 104.452 245.261 104.368C245.363 104.337 245.467 104.31 245.568 104.278C245.566 104.276 245.564 104.274 245.562 104.271C261.014 99.4213 272.235 86.2734 272.235 70.5689Z" fill="url(#paint23_linear_92_23714)"/>
<path d="M269.166 70.574C269.166 90.8918 250.51 106.817 228.288 106.166C206.893 105.54 190.126 89.6726 190.126 70.7048C190.126 51.7371 206.893 35.8143 228.288 35.1172C250.51 34.3932 269.166 50.2561 269.166 70.574Z" fill="url(#paint24_linear_92_23714)"/>
<path d="M218.262 80.4147L202.397 72.3244V69.7188L218.262 60.5136V64.9484L207.286 70.8228L218.262 75.9985V80.4147Z" fill="white"/>
<path d="M235.138 56.9224L226.115 84.246L221.583 84.1998L230.534 56.9846L235.138 56.9224Z" fill="white"/>
<path d="M238.492 76.0599L250.087 70.7575L238.492 64.8134V60.2999L255.401 69.5855V72.3141L238.492 80.5547V76.0599Z" fill="white"/>
<g opacity="0.3">
<path d="M237.952 97.3242C233.13 86.686 238.006 76.8557 231.495 70.0326C224.954 63.179 216.566 69.5855 207.674 64.1012C204.274 62.0038 200.517 57.9908 197.741 49.7137C192.952 55.605 190.126 62.87 190.126 70.7049C190.126 89.6727 206.893 105.54 228.288 106.166C233.304 106.313 238.143 105.612 242.635 104.199C240.416 101.881 238.951 99.5276 237.952 97.3242Z" fill="url(#paint25_linear_92_23714)"/>
</g>
<defs>
<linearGradient id="paint0_linear_92_23714" x1="109.779" y1="39.6036" x2="143.657" y2="147.179" gradientUnits="userSpaceOnUse">
<stop stop-color="#FF9085"/>
<stop offset="1" stop-color="#FB6FBB"/>
</linearGradient>
<linearGradient id="paint1_linear_92_23714" x1="171.583" y1="349.365" x2="164.123" y2="316.521" gradientUnits="userSpaceOnUse">
<stop stop-color="#FF9085"/>
<stop offset="1" stop-color="#FB6FBB"/>
</linearGradient>
<linearGradient id="paint2_linear_92_23714" x1="139.351" y1="121.025" x2="91.0578" y2="160.613" gradientUnits="userSpaceOnUse">
<stop stop-color="#FF9085"/>
<stop offset="1" stop-color="#FB6FBB"/>
</linearGradient>
<linearGradient id="paint3_linear_92_23714" x1="170.375" y1="221.319" x2="156.279" y2="227.227" gradientUnits="userSpaceOnUse">
<stop stop-color="#40447E"/>
<stop offset="0.9964" stop-color="#3C3B6B"/>
</linearGradient>
<linearGradient id="paint4_linear_92_23714" x1="147.454" y1="158.566" x2="132.84" y2="164.692" gradientUnits="userSpaceOnUse">
<stop stop-color="#40447E"/>
<stop offset="0.9964" stop-color="#3C3B6B"/>
</linearGradient>
<linearGradient id="paint5_linear_92_23714" x1="85.6824" y1="162.109" x2="218.785" y2="162.109" gradientUnits="userSpaceOnUse">
<stop stop-color="#40447E"/>
<stop offset="0.9964" stop-color="#3C3B6B"/>
</linearGradient>
<linearGradient id="paint6_linear_92_23714" x1="94.2323" y1="205.107" x2="229.568" y2="95.127" gradientUnits="userSpaceOnUse">
<stop stop-color="#AA80F9"/>
<stop offset="0.9964" stop-color="#6165D7"/>
</linearGradient>
<linearGradient id="paint7_linear_92_23714" x1="85.6824" y1="215.087" x2="286.196" y2="215.087" gradientUnits="userSpaceOnUse">
<stop stop-color="#40447E"/>
<stop offset="0.9964" stop-color="#3C3B6B"/>
</linearGradient>
<linearGradient id="paint8_linear_92_23714" x1="105.346" y1="213.425" x2="252.262" y2="213.425" gradientUnits="userSpaceOnUse">
<stop stop-color="#40447E"/>
<stop offset="0.9964" stop-color="#3C3B6B"/>
</linearGradient>
<linearGradient id="paint9_linear_92_23714" x1="213.187" y1="33.8255" x2="93.8992" y2="271.912" gradientUnits="userSpaceOnUse">
<stop offset="0.0036" stop-color="#E38DDD"/>
<stop offset="1" stop-color="#9571F6"/>
</linearGradient>
<linearGradient id="paint10_linear_92_23714" x1="161.763" y1="26.384" x2="182.502" y2="109.169" gradientUnits="userSpaceOnUse">
<stop offset="0.0036" stop-color="#E38DDD"/>
<stop offset="1" stop-color="#9571F6"/>
</linearGradient>
<linearGradient id="paint11_linear_92_23714" x1="179.35" y1="106.574" x2="176.334" y2="111.442" gradientUnits="userSpaceOnUse">
<stop stop-color="#FFC444"/>
<stop offset="0.9964" stop-color="#F36F56"/>
</linearGradient>
<linearGradient id="paint12_linear_92_23714" x1="222.17" y1="164.249" x2="223.388" y2="166.749" gradientUnits="userSpaceOnUse">
<stop stop-color="#FFC444"/>
<stop offset="0.9964" stop-color="#F36F56"/>
</linearGradient>
<linearGradient id="paint13_linear_92_23714" x1="219.079" y1="227.949" x2="219.079" y2="220.102" gradientUnits="userSpaceOnUse">
<stop stop-color="#FFC444"/>
<stop offset="0.9964" stop-color="#F36F56"/>
</linearGradient>
<linearGradient id="paint14_linear_92_23714" x1="195.209" y1="230.186" x2="195.209" y2="220.728" gradientUnits="userSpaceOnUse">
<stop stop-color="#FFC444"/>
<stop offset="0.9964" stop-color="#F36F56"/>
</linearGradient>
<linearGradient id="paint15_linear_92_23714" x1="189.929" y1="193.036" x2="220.807" y2="193.036" gradientUnits="userSpaceOnUse">
<stop stop-color="#311944"/>
<stop offset="1" stop-color="#893976"/>
</linearGradient>
<linearGradient id="paint16_linear_92_23714" x1="188.948" y1="169.971" x2="211.261" y2="207.371" gradientUnits="userSpaceOnUse">
<stop stop-color="#311944"/>
<stop offset="1" stop-color="#893976"/>
</linearGradient>
<linearGradient id="paint17_linear_92_23714" x1="197.705" y1="164.746" x2="220.018" y2="202.147" gradientUnits="userSpaceOnUse">
<stop stop-color="#311944"/>
<stop offset="1" stop-color="#893976"/>
</linearGradient>
<linearGradient id="paint18_linear_92_23714" x1="203.424" y1="123.602" x2="207.998" y2="130.856" gradientUnits="userSpaceOnUse">
<stop offset="0.0036" stop-color="#E38DDD"/>
<stop offset="1" stop-color="#9571F6"/>
</linearGradient>
<linearGradient id="paint19_linear_92_23714" x1="208.929" y1="122.488" x2="203.903" y2="130.602" gradientUnits="userSpaceOnUse">
<stop stop-color="#FFC444"/>
<stop offset="0.9964" stop-color="#F36F56"/>
</linearGradient>
<linearGradient id="paint20_linear_92_23714" x1="207.134" y1="121.388" x2="204.263" y2="130.17" gradientUnits="userSpaceOnUse">
<stop stop-color="#FFC444"/>
<stop offset="0.9964" stop-color="#F36F56"/>
</linearGradient>
<linearGradient id="paint21_linear_92_23714" x1="205.666" y1="87.7922" x2="247.788" y2="154.605" gradientUnits="userSpaceOnUse">
<stop stop-color="#444B8C"/>
<stop offset="0.9964" stop-color="#26264F"/>
</linearGradient>
<linearGradient id="paint22_linear_92_23714" x1="189.587" y1="131.433" x2="213.526" y2="180.561" gradientUnits="userSpaceOnUse">
<stop stop-color="#FF9085"/>
<stop offset="1" stop-color="#FB6FBB"/>
</linearGradient>
<linearGradient id="paint23_linear_92_23714" x1="179.801" y1="-35.4079" x2="238.615" y2="82.3759" gradientUnits="userSpaceOnUse">
<stop stop-color="#FFC444"/>
<stop offset="0.9964" stop-color="#F36F56"/>
</linearGradient>
<linearGradient id="paint24_linear_92_23714" x1="214.275" y1="42.0194" x2="271.395" y2="147.744" gradientUnits="userSpaceOnUse">
<stop stop-color="#FFC444"/>
<stop offset="0.9964" stop-color="#F36F56"/>
</linearGradient>
<linearGradient id="paint25_linear_92_23714" x1="198.638" y1="49.0519" x2="254.134" y2="160.192" gradientUnits="userSpaceOnUse">
<stop stop-color="#FFC444"/>
<stop offset="0.9964" stop-color="#F36F56"/>
</linearGradient>
</defs>
</svg>
