<svg width="366" height="270" viewBox="0 0 366 270" fill="none" xmlns="http://www.w3.org/2000/svg">
<g clip-path="url(#clip0_92_23864)">
<path fill-rule="evenodd" clip-rule="evenodd" d="M107.1 133.05C107.1 132.933 107.158 132.875 107.275 132.875L110.625 132.975C110.958 132.975 111.242 133.025 111.475 133.125C111.708 133.208 111.892 133.333 112.025 133.5C112.175 133.65 112.275 133.842 112.325 134.075C112.392 134.292 112.417 134.533 112.4 134.8L112.375 135.725C112.375 135.992 112.333 136.233 112.25 136.45C112.183 136.667 112.075 136.85 111.925 137C111.775 137.15 111.583 137.267 111.35 137.35C111.117 137.417 110.833 137.45 110.5 137.45L108.7 137.4L108.325 136.325H108.275L108.25 137.375L106.975 137.325L107.1 133.05ZM108.275 136.225L110.425 136.3C110.658 136.3 110.825 136.25 110.925 136.15C111.042 136.05 111.1 135.858 111.1 135.575L111.125 134.825C111.142 134.558 111.1 134.375 111 134.275C110.9 134.158 110.725 134.1 110.475 134.1L108.425 134.025C108.392 134.025 108.367 134.033 108.35 134.05C108.333 134.083 108.325 134.108 108.325 134.125L108.275 136.225Z" fill="#F1F1F4"/>
<path d="M114.225 134.975H114.175L114.15 136.3C114.133 136.367 114.158 136.4 114.225 136.4L118 136.5L117.95 137.675L113.025 137.525C112.892 137.525 112.833 137.458 112.85 137.325L112.975 133.225C112.975 133.108 113.033 133.05 113.15 133.05L117.95 133.2C118.067 133.2 118.125 133.258 118.125 133.375L118.1 134.55L116.9 134.95H116.85L116.875 134.35C116.875 134.3 116.858 134.275 116.825 134.275L114.275 134.2C114.242 134.2 114.225 134.208 114.225 134.225C114.208 134.242 114.2 134.258 114.2 134.275L114.175 134.85L116.275 134.9L116.25 135.825L114.5 135.775L114.225 134.975Z" fill="#F1F1F4"/>
<path d="M122.6 134.875H122.55L122.575 134.4C122.575 134.35 122.55 134.325 122.5 134.325L120.15 134.25C120.05 134.25 119.983 134.267 119.95 134.3C119.917 134.333 119.9 134.383 119.9 134.45V134.55C119.9 134.65 119.917 134.708 119.95 134.725C119.967 134.758 120.017 134.783 120.1 134.8L122.875 135.25C123.042 135.283 123.192 135.333 123.325 135.4C123.442 135.45 123.533 135.517 123.6 135.6C123.683 135.683 123.742 135.792 123.775 135.925C123.792 136.042 123.8 136.183 123.8 136.35V136.7C123.783 136.883 123.75 137.05 123.7 137.2C123.65 137.333 123.575 137.45 123.475 137.55C123.375 137.633 123.242 137.7 123.075 137.75C122.892 137.8 122.683 137.817 122.45 137.8L118.475 137.675L118.5 136.525L122.075 136.625C122.175 136.625 122.242 136.608 122.275 136.575C122.308 136.542 122.333 136.475 122.35 136.375V136.25C122.35 136.167 122.333 136.117 122.3 136.1C122.283 136.067 122.233 136.042 122.15 136.025L119.475 135.6C119.308 135.567 119.158 135.525 119.025 135.475C118.892 135.425 118.792 135.358 118.725 135.275C118.642 135.192 118.583 135.092 118.55 134.975C118.517 134.858 118.5 134.717 118.5 134.55V134.225C118.517 133.908 118.617 133.658 118.8 133.475C118.967 133.308 119.25 133.233 119.65 133.25L123.625 133.375C123.758 133.375 123.825 133.442 123.825 133.575L123.8 134.5L122.6 134.875Z" fill="#F1F1F4"/>
<path d="M124.275 137.85L124.425 133.4L125.675 133.425L125.55 137.9L124.275 137.85Z" fill="#F1F1F4"/>
<path d="M130.25 136.125C130.25 136.058 130.25 135.992 130.25 135.925C130.25 135.842 130.242 135.775 130.225 135.725V135.675L131.475 135.7L131.425 137.9C131.408 138.017 131.35 138.075 131.25 138.075L127.9 137.975C127.567 137.958 127.283 137.908 127.05 137.825C126.817 137.725 126.633 137.6 126.5 137.45C126.35 137.283 126.25 137.092 126.2 136.875C126.133 136.658 126.108 136.417 126.125 136.15L126.15 135.225C126.15 134.958 126.192 134.708 126.275 134.475C126.342 134.258 126.45 134.083 126.6 133.95C126.75 133.8 126.942 133.683 127.175 133.6C127.408 133.517 127.692 133.483 128.025 133.5L131.375 133.6C131.492 133.6 131.55 133.667 131.55 133.8L131.525 134.75L130.325 135.15H130.275L130.3 134.725C130.3 134.675 130.283 134.65 130.25 134.65L128.1 134.6C127.983 134.583 127.883 134.592 127.8 134.625C127.717 134.642 127.642 134.675 127.575 134.725C127.525 134.775 127.483 134.85 127.45 134.95C127.433 135.033 127.425 135.142 127.425 135.275L127.4 136.075C127.383 136.342 127.425 136.533 127.525 136.65C127.625 136.75 127.792 136.808 128.025 136.825L130.15 136.875C130.2 136.875 130.225 136.85 130.225 136.8L130.25 136.125Z" fill="#F1F1F4"/>
<path d="M134.15 133.675C134.25 133.692 134.317 133.708 134.35 133.725C134.4 133.758 134.433 133.808 134.45 133.875L136.05 137.125C136.083 137.175 136.125 137.208 136.175 137.225H136.25C136.3 137.225 136.333 137.192 136.35 137.125L136.45 133.75L137.6 133.8L137.45 138.075C137.45 138.192 137.392 138.25 137.275 138.25L135.475 138.2C135.375 138.2 135.308 138.183 135.275 138.15C135.225 138.133 135.183 138.092 135.15 138.025L133.5 134.75C133.483 134.7 133.442 134.675 133.375 134.675H133.325C133.258 134.675 133.225 134.708 133.225 134.775L133.125 138.125L131.975 138.1L132.1 133.8C132.1 133.683 132.158 133.625 132.275 133.625L134.15 133.675Z" fill="#F1F1F4"/>
<path d="M245.025 132.775C245.025 175.575 210.325 210.275 167.525 210.275C124.725 210.275 90.0249 175.575 90.0249 132.775C90.0249 89.95 124.725 55.25 167.525 55.25C210.325 55.25 245.025 89.95 245.025 132.775Z" fill="#E0F3FF"/>
<path fill-rule="evenodd" clip-rule="evenodd" d="M111.125 129.075C111.25 129.825 110.925 131.15 109.35 132.8L116 148.925C117.3 149.15 118.5 150 119.1 151.3C120.1 153.425 119.175 155.95 117.075 156.95C114.95 157.925 112.425 157.025 111.425 154.9C110.825 153.6 110.95 152.15 111.6 150.975L103.5 135.525C101.15 135.675 99.9499 135.05 99.4749 134.5C99.3999 134.4 98.8999 133.25 98.8999 133.25C97.5999 129.675 98.7249 126.225 98.7249 126.225L99.8999 125.675L101.875 130.775C103.525 131.7 105.125 131.375 105.125 131.375C105.125 131.375 106.4 130.375 106.75 128.525L104.1 123.725L105.275 123.175C105.275 123.175 108.65 124.525 110.55 127.8C110.55 127.8 111.1 128.9 111.125 129.075ZM117.425 152.1L115.475 150.75L113.325 151.75L113.125 154.1L115.075 155.45L117.2 154.45L117.425 152.1Z" fill="url(#paint0_linear_92_23864)"/>
<path fill-rule="evenodd" clip-rule="evenodd" d="M109.925 134.075L116.575 150.2C117.9 150.425 119.1 151.275 119.7 152.575C120.7 154.7 119.775 157.2 117.65 158.2C115.525 159.2 113 158.275 112.025 156.15C111.4 154.85 111.525 153.4 112.2 152.25L104.1 136.775C101.325 136.95 99.4748 134.5 99.4748 134.5C98.1998 130.925 99.3248 127.475 99.3248 127.475L100.5 126.925L102.475 132.05C104.125 132.95 105.7 132.625 105.7 132.625V132.65C105.7 132.65 106.975 131.625 107.325 129.775L104.675 124.975L105.85 124.425C105.85 124.425 109.225 125.775 111.125 129.075C111.125 129.075 111.85 132.05 109.925 134.075ZM118 153.35L116.075 152L113.925 153L113.725 155.375L115.65 156.725L117.8 155.725L118 153.35Z" fill="url(#paint1_linear_92_23864)"/>
<path d="M98.7249 126.225L99.3249 127.475L100.5 126.925L99.8999 125.675L98.7249 126.225Z" fill="#E5E2FF"/>
<path d="M104.1 123.725L104.675 124.975L105.85 124.425L105.275 123.175L104.1 123.725Z" fill="#E5E2FF"/>
<path d="M115.075 155.45L115.65 156.725L117.8 155.725L117.2 154.45L115.075 155.45Z" fill="#E5E2FF"/>
<path fill-rule="evenodd" clip-rule="evenodd" d="M109.7 136.125L115.025 149.275C115.025 149.275 114.1 150.575 112.375 150.5L105.825 137.925C105.825 137.925 107.3 136.05 109.7 136.125ZM109.4 136.375C108.85 136.442 108.308 136.6 107.775 136.85C107.075 137.175 106.525 137.6 106.2 137.875L112.75 150.2C113.067 150.15 113.375 150.058 113.675 149.925C114.025 149.75 114.325 149.55 114.5 149.375L109.4 136.375Z" fill="url(#paint2_linear_92_23864)"/>
<path d="M114.5 149.375L115.025 149.275C115.025 149.275 114.275 150.6 112.375 150.5L112.75 150.2C112.75 150.2 113.7 150.1 114.5 149.375Z" fill="#E5E2FF"/>
<path style="mix-blend-mode:multiply" opacity="0.6" d="M105.825 137.925L106.2 137.875C106.2 137.875 107.325 136.725 109.4 136.375L109.7 136.125C109.7 136.125 108.85 135.975 107.55 136.6C106.25 137.2 105.825 137.925 105.825 137.925Z" fill="url(#paint3_linear_92_23864)"/>
<path style="mix-blend-mode:multiply" opacity="0.6" d="M104.1 136.775C104.1 136.775 107.25 136.225 109.925 134.075L110.775 136.125C110.775 136.125 109.8 135.175 107.7 136.05C105.225 137.05 105.35 139.05 105.35 139.05L104.1 136.775Z" fill="url(#paint4_linear_92_23864)"/>
<path style="mix-blend-mode:screen" opacity="0.5" d="M110.775 136.125C110.175 135.7 109.475 135.675 109.475 135.675L115.825 150.975L116.575 150.2L110.775 136.125Z" fill="url(#paint5_linear_92_23864)"/>
<path d="M110.775 136.125C110.775 136.125 110.125 138.175 112.025 139.15L110.775 136.125Z" fill="white"/>
<path d="M206.125 235H182.625C180.15 221.35 174.425 203.575 174.425 203.575C173.05 202.75 170.325 203.75 170.325 203.75L161.75 235H140.275C139.125 215.725 149.675 193.825 149.675 193.825C149.65 193.75 149.3 193.075 149.4 192.625C149.425 192.45 149.8 192.075 150.2 191.7C150.775 191.175 151.475 190.65 151.475 190.65L191.525 190.4C191.525 190.4 191.925 190.6 192.45 190.9C193.325 191.45 194.5 192.25 194.5 192.85C194.5 193.675 194.175 194.225 194.1 194.35L194.075 194.375C202.675 210.575 206.125 235 206.125 235Z" fill="url(#paint6_linear_92_23864)"/>
<path style="mix-blend-mode:screen" opacity="0.5" d="M160.175 220.975C157.3 233.425 151.05 242.625 146.225 241.525C141.4 240.4 139.825 229.4 142.7 216.95C145.575 204.475 151.8 195.275 156.625 196.4C161.45 197.5 163.025 208.5 160.175 220.975Z" fill="url(#paint7_radial_92_23864)"/>
<path style="mix-blend-mode:screen" opacity="0.5" d="M201.65 216.325C205.1 228.625 204.05 239.7 199.275 241.025C194.5 242.375 187.85 233.475 184.4 221.15C180.95 208.85 182.025 197.775 186.775 196.425C191.55 195.1 198.2 204 201.65 216.325Z" fill="url(#paint8_radial_92_23864)"/>
<path d="M158.95 235.025L158.725 234.975C161.45 218.875 168.375 205.375 168.45 205.25L168.475 205.2L170.25 203.65L170.4 203.85L168.675 205.375C168.35 205.975 161.625 219.25 158.95 235.025Z" fill="url(#paint9_linear_92_23864)"/>
<path d="M185.8 235.025C183.125 219.25 176.225 205.85 175.925 205.25L174.35 203.85L174.525 203.65L176.125 205.125C176.2 205.25 183.325 218.875 186.05 234.975L185.8 235.025Z" fill="url(#paint10_linear_92_23864)"/>
<path style="mix-blend-mode:multiply" opacity="0.8" d="M194.5 192.85C194.5 193.675 194.175 194.225 194.1 194.35L194.075 194.375C185.75 196.25 179.4 204.025 179.4 204.025C183.95 212.75 191.525 235 191.525 235H182.625C180.15 221.35 174.425 203.575 174.425 203.575C173.05 202.75 170.325 203.75 170.325 203.75L161.75 235H156.175C158.175 221.9 164.05 205.925 164.05 205.925C158.275 199.2 149.675 193.825 149.675 193.825L148.65 193.2L149.4 192.625C153.1 196.2 165.1 200.85 165.45 201L150.2 191.7C150.775 191.175 151.475 190.65 151.475 190.65L191.525 190.4C191.525 190.4 191.925 190.6 192.45 190.9L181.5 196.925L194.5 192.85Z" fill="url(#paint11_linear_92_23864)"/>
<path style="mix-blend-mode:multiply" opacity="0.8" d="M174.425 203.575L179.1 200.525L178 203.575L177.175 212.7L174.425 203.575Z" fill="url(#paint12_linear_92_23864)"/>
<path style="mix-blend-mode:multiply" opacity="0.8" d="M170.325 203.75L165.45 201L155.025 196.3L168.3 205.075L169.1 208.225L170.325 203.75Z" fill="url(#paint13_linear_92_23864)"/>
<path d="M183.725 109.825C183.75 110.05 183.775 110.15 183.775 110.15C183.542 111.167 183.267 112.108 182.95 112.975C181.975 115.8 180.75 117.8 179.85 119.05C179.05 120.125 178.475 120.625 178.475 120.625C171.175 118.35 167.6 111.2 166.2 107.65C166.2 107.633 166.2 107.617 166.2 107.6C165.925 106.925 165.75 106.4 165.65 106.05C165.55 105.75 165.525 105.6 165.525 105.6C165.542 105.533 165.567 105.475 165.6 105.425L165.625 105.4C165.75 105.15 165.85 104.9 165.975 104.65C166.925 102.55 167.55 100.6 167.975 99.05C168.325 97.75 168.525 96.75 168.6 96.2C168.65 95.925 168.675 95.775 168.675 95.775L172.075 97.575L183.775 103.775C183.6 104.85 183.55 105.85 183.525 106.75C183.525 107.375 183.55 107.925 183.575 108.4C183.625 108.975 183.675 109.45 183.725 109.75C183.725 109.775 183.725 109.8 183.725 109.825Z" fill="#FE9083"/>
<path d="M180.475 121.425C179.8 122.1 179 122.7 178.05 123.2C178.033 123.2 178.017 123.208 178 123.225C178 123.225 177.975 123.208 177.925 123.175C177.675 123.025 176.8 122.5 175.625 121.6C172.575 119.3 167.45 114.65 166 108.375C166 108.358 166 108.35 166 108.35C165.825 107.6 165.7 106.825 165.65 106.05C165.633 105.833 165.617 105.625 165.6 105.425C165.6 105.425 166.625 107.8 168.375 110.375C170.45 113.4 173.55 116.725 177.275 116.725C180.475 116.75 182.125 114.55 182.95 112.525C183.3 111.675 183.525 110.85 183.625 110.225C183.658 110.042 183.692 109.883 183.725 109.75C183.725 109.683 183.733 109.617 183.75 109.55C183.775 109.325 183.775 109.2 183.775 109.2C183.775 109.2 185.025 116.875 180.475 121.425Z" fill="url(#paint14_linear_92_23864)"/>
<path style="mix-blend-mode:multiply" opacity="0.5" d="M180.475 121.425C179.8 122.1 179 122.7 178.05 123.2H178L177.925 123.175C177.675 123.025 176.8 122.5 175.625 121.6C172.575 119.3 167.45 114.65 166 108.375C166 108.358 166 108.35 166 108.35C165.825 107.6 165.7 106.825 165.65 106.05C165.633 105.833 165.617 105.625 165.6 105.425C165.6 105.425 166.625 107.8 168.375 110.375C168.375 110.375 170.4 115.925 174.775 118.675C176.95 120.05 178.625 119.85 179.85 119.05C181.05 118.25 181.85 116.825 182.325 115.775C182.775 114.7 182.925 113.725 182.95 112.975C182.95 112.808 182.95 112.658 182.95 112.525C183.3 111.675 183.525 110.85 183.625 110.225C183.658 110.042 183.692 109.883 183.725 109.75C183.725 109.683 183.733 109.617 183.75 109.55C183.775 109.325 183.775 109.2 183.775 109.2C183.775 109.2 185.025 116.875 180.475 121.425Z" fill="url(#paint15_linear_92_23864)"/>
<path d="M208.55 166.775C208.5 166.792 208.475 166.8 208.475 166.8C208.075 166.85 206.8 166.575 205.125 165.125C205.125 165.125 205.116 165.117 205.1 165.1C205.1 165.1 205.091 165.1 205.075 165.1C203.675 163.875 202 161.825 200.325 158.475C196.975 151.775 196.025 147.3 195.875 146.525L195.85 146.4L193.9 149.5C192.575 153.5 190.05 169.975 190.1 170.7C190.15 171.4 192.325 174.85 192.275 175.275C192.275 175.275 192.275 175.283 192.275 175.3C192.225 175.725 191.225 176.675 190.95 177.7C190.775 178.375 192.1 180.55 193.025 182.15V182.175C193.525 183 193.9 183.7 193.9 183.95C193.9 184.7 191.525 188.4 191.525 188.4V190.4L191.475 190.425L191.375 190.525L191.275 190.6C190.375 191.325 186.575 193.65 174.65 194.275C160.525 195.025 151.125 190.5 151.125 190.5L151.825 188.55C151.825 188.55 151.175 187.975 151.125 187.7C151.075 187.4 151.625 186.75 151.625 186.75C151.625 186.75 150.225 186 150.225 185.05C150.225 184.1 153.05 181.15 152.975 178.65C152.875 176.125 150.7 173.9 150.4 172.5C150.125 171.075 154.1 167.575 154.1 167.575C150.7 156.775 150.025 142.275 150.025 142.275L149.375 141.5C149.375 141.5 145.3 150.8 141.6 155.35C141.15 155.875 140.7 156.425 140.2 156.925C139.175 158.05 138.075 159.1 137.025 160C134.475 162.225 132.15 163.7 131.55 163.575C130.6 163.4 126.825 155.9 127 148.225C127.075 144.575 129.275 140.5 131.55 137.225C131.8 136.875 132.05 136.533 132.3 136.2C133.925 134 135.475 132.25 136.225 131.475C136.5 131.15 136.675 131 136.675 131C136.675 131 136.15 129.325 135.8 127.875C135.783 127.825 135.775 127.783 135.775 127.75C135.775 127.733 135.766 127.717 135.75 127.7C135.75 127.683 135.75 127.675 135.75 127.675C135.55 126.775 135.4 126 135.525 125.825C135.85 125.3 137.675 124.75 138 124.375C138.3 123.975 139.625 117.6 140.65 116.9C141.625 116.25 143.325 115.75 149 113.525C149.283 113.425 149.575 113.308 149.875 113.175C156.25 110.65 162.5 107.6 162.5 107.6L164.9 104.65H165.975L165.625 105.4L165.6 105.425C165.766 106.175 165.966 106.9 166.2 107.6C166.2 107.617 166.2 107.633 166.2 107.65C169.5 118.075 178 121.425 178 121.425C183.9 117.075 183.775 110.15 183.775 110.15V109.2L184.9 109.525L185.65 111.325C185.65 111.325 186.925 113.325 192 115.55C192.875 115.95 193.8 116.425 194.775 116.975C199.425 119.625 204.575 123.7 204.975 124.55C205.008 124.633 205.05 124.775 205.1 124.975V125C205.65 127.125 206.775 135.15 207.825 138C208.475 139.8 209.5 140.775 210.25 141.275C210.25 141.292 210.25 141.3 210.25 141.3C210.825 141.675 211.225 141.8 211.225 141.8C211.308 142.233 211.383 142.667 211.45 143.1C213.625 156.8 209.5 166.125 208.55 166.775Z" fill="url(#paint16_linear_92_23864)"/>
<path style="mix-blend-mode:multiply" opacity="0.5" d="M154.15 140.875L150.025 142.275L149.375 141.5C149.375 141.5 145.3 150.8 141.6 155.35C141.15 155.875 140.7 156.425 140.2 156.925C139.175 158.05 138.075 159.1 137.025 160L133.9 146.475L132.3 136.2C133.925 134 135.475 132.25 136.225 131.475C136.5 131.15 136.675 131 136.675 131C136.675 131 136.15 129.325 135.8 127.875C135.783 127.842 135.775 127.8 135.775 127.75C135.775 127.733 135.766 127.717 135.75 127.7C135.75 127.683 135.75 127.675 135.75 127.675C135.55 126.775 135.4 126 135.525 125.825C135.85 125.3 137.675 124.75 138 124.375C138.3 123.975 139.625 117.6 140.65 116.9C140.65 116.9 139.975 123.025 143.5 130.8L145.2 133.2L150.175 137.225C150.175 137.225 152.075 139.725 154.15 140.875Z" fill="url(#paint17_linear_92_23864)"/>
<path d="M142.225 151.975C141.35 158.525 131.55 163.575 131.55 163.575C129.375 163.575 126.95 159.8 124.725 155.125C122.525 150.45 122.375 137.025 122.275 136.175C122.15 135.35 120.925 133.7 120.85 132.975C120.775 132.275 122.825 130.8 122.825 130.8V130.775L122.8 130.725C122.6 130.275 121.375 127.675 121.475 127.2C121.55 126.675 123.875 125.55 123.875 125.55L124.025 128.1C124.025 128.1 129.4 127.075 131.225 122.9L131.55 121.625L132.45 122.225V127.725C132.45 127.725 132.65 128.575 132.925 128.575C133.2 128.575 135.3 127.525 135.75 127.675C136.2 127.825 136.625 130.75 137.225 131.125C137.8 131.525 139.375 132.6 139.6 133.125C139.7 133.35 139.725 134.2 139.725 135.2C139.75 136.425 139.75 137.85 139.925 138.675C140.275 140.125 143.1 145.4 142.225 151.975Z" fill="url(#paint18_linear_92_23864)"/>
<path d="M231.725 146.35C231.275 147.025 229.075 148.5 228.5 149.05C227.925 149.625 228.5 151.5 228.5 151.5C219.225 161.35 209.525 166.275 208.55 166.775C208.5 166.792 208.475 166.8 208.475 166.8C202.65 162.875 203.15 156.425 205.075 151C206.925 145.775 210.1 141.475 210.25 141.3C210.35 141.25 212.025 140.55 213.225 140.475C213.6 140.45 213.975 140.6 214.3 140.8C215.025 141.25 215.625 141.95 216.2 141.65C217.05 141.225 218.975 136.7 220.25 136.575C221.175 136.5 222.425 137.425 223.25 137.95C223.625 138.175 223.9 138.325 224.05 138.3C224.525 138.175 226.125 136.225 226.25 136.175C226.375 136.125 227.125 136.675 227.125 136.675L226.6 137.3C227.4 141.85 229.975 144.925 229.975 144.925L231.725 142.375C231.725 142.375 232.175 145.65 231.725 146.35Z" fill="url(#paint19_linear_92_23864)"/>
<path d="M183.75 109.625C183.75 109.692 183.742 109.758 183.725 109.825C183.708 109.958 183.675 110.092 183.625 110.225C183.025 112.45 180.625 114.7 177.6 113.6C174.275 112.425 167.975 99.05 167.975 99.05L168.6 96.2L183.575 108.4L183.75 109.55V109.625Z" fill="#CB4D7A"/>
<path d="M133.9 107.175C133.9 107.175 132.975 102.125 133.375 98.3999C133.8 94.6749 133.275 90.4499 133.275 90.4499C133.275 90.4499 132.375 90.0749 131.7 90.4499C131.05 90.8249 129.5 94.6749 130.2 97.7749C130.9 100.875 130.35 108.3 130.35 108.3H129.3L127.025 105.175L125.925 104.85C125.925 104.85 119.575 110.85 119.675 114.425L120.5 117.6L128.325 117.325L133.45 111.475L133.9 107.175Z" fill="#EE8183"/>
<path d="M125.925 104.85C125.925 104.85 126.1 108.825 127 112.225C127 112.225 126.85 113.625 125.2 113.725L124.8 113.275C124.8 113.275 124.525 114.875 123.075 114.975L121.7 113.6L122.05 114.75C122.05 114.75 121.55 115.95 120.25 115.9C120.25 115.9 118.075 114.2 117.925 111.975L120.1 110.15V108.75L122.65 106.95L122.7 105.925C122.7 105.925 124.2 104.825 125.925 104.85Z" fill="url(#paint20_linear_92_23864)"/>
<path style="mix-blend-mode:multiply" opacity="0.6" d="M133.475 97.325C133.475 97.325 133.1 98.3 132.55 98.7C132 99.075 130.425 99.3499 130.425 99.3499L130.35 108.3H129.3L127.025 105.175C127.025 105.175 128.2 106.95 128.25 108.3L127.35 108.725L126.575 106.05L126.2 107.975L126.575 110.375C126.575 110.375 127.925 109.225 130.375 109.175L130.725 109.825C130.725 109.825 126.325 113.5 125.3 115.65C125.3 115.65 127.475 112.875 132.45 109.825L132.925 108.35L133.55 104.85C133.55 104.85 132.95 99.8 133.475 97.325Z" fill="url(#paint21_linear_92_23864)"/>
<path d="M137.175 112.9C136.775 114.125 132.475 119.25 132 120.35C131.525 121.45 131.225 122.9 131.225 122.9C129.125 127.475 124.025 128.1 124.025 128.1L123.775 123.975C123.775 123.975 121.05 122.4 120.575 121.55V121.525L120.525 121.375C120.375 120.575 120.5 117.6 120.5 117.6L125.3 115.65C127.375 112.95 132.45 109.825 132.45 109.825L132.7 108.4C129.05 106.625 129.65 101.2 130.275 100.525C130.9 99.8749 132.025 99.8749 132.025 99.8749C132.025 99.8749 133.35 104.225 134.2 106.275C135.05 108.3 137.575 111.675 137.175 112.9Z" fill="url(#paint22_linear_92_23864)"/>
<path d="M122.7 105.925C122.7 105.925 123.225 110.9 124.8 113.275C124.8 113.275 122.8 110.8 122.65 106.95L122.7 105.925Z" fill="#E28183"/>
<path d="M120.1 108.75C120.1 108.75 120.6 112.75 123.075 114.975C123.075 114.975 120.9 113.9 120.1 110.15V108.75Z" fill="#E28183"/>
<path style="mix-blend-mode:multiply" opacity="0.9" d="M132.65 119.3C132.65 119.3 127.25 124.55 123.775 123.975L124.025 128.1C124.025 128.1 129.7 127.6 131.55 121.625C131.55 121.625 132.225 119.9 132.65 119.3Z" fill="url(#paint23_linear_92_23864)"/>
<path d="M247.175 126.45C247.175 126.45 242.2 135.55 236.375 138.325H234.4L229.8 145.3C229.8 145.3 226.825 143.425 226.6 137.3C226.6 137.3 227.65 136.225 227.9 135C227.9 135 226.25 133.7 225.825 132.775C225.375 131.825 225.225 128.975 224.9 127.8C224.575 126.625 221.9 124.2 221.3 123.9C220.7 123.575 217.975 123.425 217.975 123.425C217.975 123.425 217.6 122.425 217.975 121.975C218.375 121.5 222.6 119.85 224.9 121.425C224.9 121.425 225.05 122.625 225.3 123.25C225.575 123.9 227.575 126.125 227.9 126.125C228.225 126.125 229.575 125 230.175 124.1C230.75 123.25 233.8 116.675 234.55 114.45C234.55 114.433 234.558 114.408 234.575 114.375C234.575 114.35 234.6 114.325 234.6 114.275C234.6 114.258 234.608 114.242 234.625 114.225C234.625 114.208 234.625 114.2 234.625 114.2C235.2 112.275 238.5 108.575 240.275 107.575C240.275 107.575 241.025 107.375 241.45 108.325C241.45 108.325 240.025 112.375 238.55 114.775C238.3 115.175 238.025 115.65 237.75 116.15C237.75 116.15 237.741 116.15 237.725 116.15C236.475 118.475 235.05 121.525 234.85 121.975L234.825 122.025L235.6 122.425L237.75 120.4L239.925 118.325L244.95 123.625L244.45 124.275L242.9 126.275L243.675 126.425L245.525 124.375L247.175 126.45Z" fill="url(#paint24_linear_92_23864)"/>
<path style="mix-blend-mode:multiply" opacity="0.6" d="M246.025 128.375L244.425 130.725C244.425 130.725 235.7 123.975 233.8 123.425C231.9 122.85 231.225 123.225 231.225 123.225L229.25 125.725C229.25 125.725 232.85 128.9 233.175 133.2C233.175 133.2 231.975 127.775 227.9 126.125C228.225 126.125 229.575 125 230.175 124.1C230.75 123.25 233.8 116.675 234.55 114.45C234.45 114.825 234.325 115.575 234.625 116.15C235.05 116.95 237.575 116.2 237.725 116.15C237.741 116.15 237.75 116.15 237.75 116.15L234.85 121.975L234.825 122.025L235.6 122.425L237.75 120.4L236.675 122.9L244.45 124.275L242.9 126.275L243.675 126.425L246.025 128.375Z" fill="url(#paint25_linear_92_23864)"/>
<path d="M239.925 118.325C239.925 118.325 241.45 118.1 242.425 120.075L242.2 120.7C242.2 120.7 243.675 121 245.1 123.375C245.1 123.375 243.85 125.7 240.725 126.725C240.725 126.725 239.275 126.325 239.025 125.1L239.3 124.3L238.175 125.15C238.175 125.15 236.8 125.575 236.2 123.55L239.925 118.325Z" fill="url(#paint26_linear_92_23864)"/>
<path d="M247.625 125.825C247.625 125.825 247.95 124.375 246.4 123.425L243.4 126.725C243.4 126.725 243.5 127.8 244.8 128.025C244.8 128.025 246.85 127.325 247.625 125.825Z" fill="url(#paint27_linear_92_23864)"/>
<path style="mix-blend-mode:multiply" opacity="0.9" d="M225.825 132.775C225.825 132.775 229.3 136.65 234.4 138.325L232.2 141.675L227.6 135.85L227.9 135C227.9 135 226.075 133.625 225.825 132.775Z" fill="url(#paint28_linear_92_23864)"/>
<path d="M242.2 120.7C242.2 120.7 240.75 123.1 239.3 124.3L239.025 125.1C239.025 125.1 241.825 123.175 242.875 121C242.875 121 242.525 120.75 242.2 120.7Z" fill="#E28183"/>
<path style="mix-blend-mode:multiply" opacity="0.5" d="M231.725 146.35C231.275 147.025 229.075 148.5 228.5 149.05C227.925 149.625 228.5 151.5 228.5 151.5C219.225 161.35 209.525 166.275 208.55 166.775C208.5 166.792 208.475 166.8 208.475 166.8C207.725 166.9 204.025 165.85 200.325 158.475C196.975 151.775 196.025 147.3 195.875 146.525L195.85 146.4L196.65 145.3L197.875 131.65L198.725 134.4C201.95 130.525 204.975 124.55 204.975 124.55L205.1 124.975V125C205.65 127.125 206.775 135.15 207.825 138C208.475 139.8 209.5 140.775 210.25 141.275V141.3C207.275 144 205.8 147.9 205.075 151C204.425 153.825 204.375 156 204.375 156C204.375 156 205.2 152.15 207.775 147.525C208.725 145.85 210.1 144.325 211.45 143.1C212.475 142.175 213.475 141.4 214.3 140.8C215.025 141.25 215.625 141.95 216.2 141.65C212.3 147.5 212.4 159.1 216.05 156.9C219.725 154.675 220.55 150 220.55 150C219.7 144.275 219.95 137.825 220.65 136.6C221.5 136.625 223.9 138.325 224.05 138.3C223.825 145.025 226.975 149.5 226.975 149.5L229.075 146.275C226.025 141.175 226.25 136.175 226.25 136.175C226.375 136.125 227.125 136.675 227.125 136.675L226.6 137.3C227.4 141.85 229.975 144.925 229.975 144.925L231.725 142.375C231.725 142.375 232.175 145.65 231.725 146.35Z" fill="url(#paint29_linear_92_23864)"/>
<path style="mix-blend-mode:multiply" opacity="0.5" d="M191.525 188.4V190.4L191.475 190.425L191.375 190.525L191.275 190.6C190.375 191.325 186.575 193.65 174.65 194.275C160.525 195.025 151.125 190.5 151.125 190.5L151.825 188.55C151.825 188.55 151.175 187.975 151.125 187.7C151.075 187.4 151.625 186.75 151.625 186.75C151.625 186.75 150.225 186 150.225 185.05C150.225 184.175 152.525 181.7 152.9 179.375C152.95 179.125 152.975 178.883 152.975 178.65C152.875 176.15 150.7 173.925 150.4 172.5C150.125 171.075 154.1 167.575 154.1 167.575C150.7 156.775 150.025 142.275 150.025 142.275L149.375 141.5C149.375 141.5 145.3 150.8 141.6 155.35C137.9 159.9 132.5 163.775 131.55 163.575C129.375 163.575 126.95 159.8 124.725 155.125C122.525 150.45 122.375 137.025 122.275 136.175C122.15 135.35 120.925 133.7 120.85 132.975C123.225 137.05 127 135.85 127 135.85C124.25 135.925 122.825 130.8 122.825 130.8V130.775L122.8 130.725L121.475 127.2C121.625 127.375 124.75 130.875 127.775 128.725C130.85 126.5 132.45 122.225 132.45 122.225V127.725C132.45 127.725 132.65 128.575 132.925 128.575C132.75 131.1 132.2 134.2 131.55 137.225C130.15 143.8 128.225 150.125 128.225 150.125C128.225 150.125 133.45 147.3 135.275 140.1C136.15 136.65 136.3 133.65 136.225 131.475C136.15 129.6 135.9 128.325 135.8 127.875C135.783 127.825 135.775 127.783 135.775 127.75C135.775 127.733 135.767 127.717 135.75 127.7C135.75 127.7 135.75 127.692 135.75 127.675L136.25 128.75L137.225 131.125C138.325 140.375 136.025 154.3 136.025 154.3C139.375 150.125 140.075 140.9 139.925 138.675C139.875 137.6 139.775 136.275 139.725 135.2C139.65 134.025 139.6 133.125 139.6 133.125L146.45 137.225L145.2 133.2L150.175 137.225C150.175 137.225 154.675 142.625 159.275 143.25C163.9 143.875 180.825 143.5 180.825 143.5C180.825 143.5 166.1 144.45 161.8 145.7C157.5 146.975 156.7 148.425 156.7 148.425C159.8 164.225 176.975 169.55 177.525 169.7C161.925 167.375 154.675 154.1 154.675 154.1C154.675 154.1 154.425 161.575 155.625 164.4C156.825 167.25 163.9 174.2 172.975 175.65C173.742 175.767 174.5 175.842 175.25 175.875C182.925 176.225 189.275 172.325 189.925 171.9C189.958 171.867 189.975 171.85 189.975 171.85C189.975 171.85 189.967 171.858 189.95 171.875C189.725 172.25 186.575 176.675 173.875 177.175C173.108 177.192 172.358 177.183 171.625 177.15C171.608 177.15 171.6 177.15 171.6 177.15C159.85 176.675 153.85 168.825 153.85 168.825C153.85 168.825 149.5 171.175 152.275 174.625C152.308 174.675 152.333 174.717 152.35 174.75C153.175 175.7 154.975 176.85 157.125 178.025C157.175 178.075 157.233 178.108 157.3 178.125C159.875 179.55 162.9 181.025 165.25 182.25C165.25 182.25 165.258 182.25 165.275 182.25C166.7 183 167.875 183.65 168.525 184.125C168.542 184.125 168.55 184.125 168.55 184.125C169.2 184.6 169.325 184.925 168.7 185C165.4 185.375 152.975 182.65 152.45 183.425C151.95 184.175 153.075 186.125 153.075 186.125C164.5 191.8 188.925 189 189.7 188.925C169.25 194.15 152.525 187.525 152.525 187.525L153.075 189.475C153.075 189.475 162.175 192.625 172.925 192.9C183.65 193.15 190.35 190.4 190.35 190.4L191.525 188.4Z" fill="url(#paint30_linear_92_23864)"/>
<path style="mix-blend-mode:multiply" opacity="0.5" d="M183.15 143.425C183.15 143.425 191.275 143.875 196.65 145.3L193.9 149.5C193.9 149.5 189.725 145.825 183.15 143.425Z" fill="url(#paint31_linear_92_23864)"/>
<path style="mix-blend-mode:multiply" opacity="0.5" d="M190.75 165.85C190.75 165.85 185.675 170.1 180.7 172.05C175.7 174 170.9 174.2 170.9 174.2C170.9 174.2 173.775 175.05 180.825 173.9C187.875 172.775 190.3 168.95 190.3 168.95L190.75 165.85Z" fill="url(#paint32_linear_92_23864)"/>
<path style="mix-blend-mode:multiply" opacity="0.5" d="M193.025 182.15V182.175C183.65 184.6 171.725 181.1 171.825 180.675C171.925 180.25 175.075 180.875 182.425 179.4C189.55 177.975 192.125 175.45 192.275 175.3C192.225 175.725 191.225 176.675 190.95 177.7C190.775 178.375 192.1 180.55 193.025 182.15Z" fill="url(#paint33_linear_92_23864)"/>
<path style="mix-blend-mode:multiply" opacity="0.5" d="M167.525 144.7C159.5 145.525 157.35 147.75 157.35 147.75C155.1 148.05 150.025 142.275 150.025 142.275L149.375 141.5C149.375 141.5 145.3 150.8 141.6 155.35C141.15 155.875 140.7 156.425 140.2 156.925L140.725 155.75C140.725 155.75 141.6 155.35 141.85 150.825C142.1 146.325 139.95 139.575 139.925 138.675C139.925 137.75 139.6 133.125 139.6 133.125L146.45 137.225L145.2 133.2L150.175 137.225C150.175 137.225 152.15 140.15 157.075 142.6C161.725 144.925 166.95 144.725 167.525 144.7Z" fill="url(#paint34_linear_92_23864)"/>
<path style="mix-blend-mode:multiply" opacity="0.5" d="M149.375 141.5L154.15 140.875C154.15 140.875 156.05 142.15 159.875 143.7L156.7 148.425C156.7 148.425 157.95 155.15 161.6 158.925C161.6 158.925 151.95 153.575 150.575 149.05L149.375 141.5Z" fill="url(#paint35_linear_92_23864)"/>
<path style="mix-blend-mode:multiply" opacity="0.5" d="M121.475 127.2L122.825 130.8C122.825 130.8 124.225 135.65 127 135.85C129.75 136.075 132.45 127.725 132.45 127.725V122.225C132.45 122.225 129.525 128.525 126.35 129.25C123.175 129.95 121.475 127.2 121.475 127.2Z" fill="url(#paint36_linear_92_23864)"/>
<path style="mix-blend-mode:multiply" opacity="0.5" d="M138 124.375C138 124.375 140.45 129.3 143.5 130.8C143.5 130.8 139.875 122.05 140.65 116.9C140.65 116.9 139.325 117.725 138 124.375Z" fill="url(#paint37_linear_92_23864)"/>
<path style="mix-blend-mode:multiply" opacity="0.8" d="M197.875 131.65L198.725 134.4L199.575 156.925C199.575 156.925 197.4 152.65 195.875 146.525L196.65 145.3C196.65 145.3 198 136.8 197.875 131.65Z" fill="url(#paint38_linear_92_23864)"/>
<path style="mix-blend-mode:multiply" opacity="0.5" d="M224.05 138.3C224.05 138.3 223.575 149.35 228.275 150.3L228.5 151.5C228.5 151.5 222.425 151.275 224.05 138.3Z" fill="url(#paint39_linear_92_23864)"/>
<path style="mix-blend-mode:multiply" opacity="0.3" d="M216.2 141.65C216.2 141.65 216.025 142.05 214.3 140.8C214.3 140.8 208.4 145 206.125 150.9C206.125 150.9 209.75 145.475 211.7 144.9C213.65 144.3 214.1 146.475 214.1 146.475C214.1 146.475 214.875 143.425 216.2 141.65Z" fill="url(#paint40_linear_92_23864)"/>
<path style="mix-blend-mode:multiply" opacity="0.5" d="M120.85 132.975C120.85 132.975 123.125 137.175 127.375 135.875C127.375 135.875 124.825 137.575 122.275 136.175C122.275 136.175 120.675 133.45 120.85 132.975Z" fill="url(#paint41_linear_92_23864)"/>
<path style="mix-blend-mode:multiply" opacity="0.5" d="M135.75 127.675C135.75 127.675 138.875 139.375 130.725 148.175C130.725 148.175 136.025 145.45 137.225 139.15C138.425 132.85 135.75 127.675 135.75 127.675Z" fill="url(#paint42_linear_92_23864)"/>
<path style="mix-blend-mode:multiply" opacity="0.5" d="M191.825 118.325C191.825 118.325 191.475 123.6 188.925 127.4C186.4 131.175 181.375 133.75 181.375 133.75C181.375 133.75 187.675 131.425 190.575 128.15C193.475 124.875 191.825 118.325 191.825 118.325Z" fill="url(#paint43_linear_92_23864)"/>
<path style="mix-blend-mode:multiply" opacity="0.5" d="M159.6 110.375C159.6 110.375 159.6 114.8 161.025 119.3C162.425 123.8 174.775 131.65 174.775 131.65C174.775 131.65 162.05 126.375 159.6 121.625C157.125 116.875 159.6 110.375 159.6 110.375Z" fill="url(#paint44_linear_92_23864)"/>
<path d="M159.45 131.4V138.6C159.45 138.6 176 138.475 194.575 139.7L195 133.225C195 133.225 178.85 131.3 159.45 131.4Z" fill="url(#paint45_linear_92_23864)"/>
<path fill-rule="evenodd" clip-rule="evenodd" d="M162.525 133.05C162.525 132.933 162.583 132.875 162.7 132.875L166.05 132.975C166.383 132.975 166.667 133.025 166.9 133.125C167.133 133.208 167.317 133.333 167.45 133.5C167.583 133.65 167.683 133.842 167.75 134.075C167.8 134.292 167.825 134.533 167.825 134.8L167.8 135.725C167.783 135.992 167.742 136.233 167.675 136.45C167.608 136.667 167.5 136.85 167.35 137C167.2 137.15 167.008 137.267 166.775 137.35C166.542 137.417 166.258 137.45 165.925 137.45L164.1 137.4L163.725 136.325H163.675L163.65 137.375L162.4 137.325L162.525 133.05ZM163.675 136.225L165.825 136.3C166.075 136.3 166.25 136.25 166.35 136.15C166.45 136.05 166.508 135.858 166.525 135.575L166.55 134.825C166.55 134.558 166.5 134.375 166.4 134.275C166.3 134.158 166.133 134.1 165.9 134.1L163.85 134.025C163.817 134.025 163.792 134.033 163.775 134.05C163.758 134.083 163.75 134.108 163.75 134.125L163.675 136.225Z" fill="#EBEFFF"/>
<path d="M169.625 134.975H169.6L169.55 136.3C169.55 136.367 169.575 136.4 169.625 136.4L173.4 136.5L173.375 137.675L168.425 137.525C168.308 137.525 168.25 137.458 168.25 137.325L168.375 133.225C168.375 133.108 168.442 133.05 168.575 133.05L173.375 133.2C173.492 133.2 173.55 133.258 173.55 133.375L173.5 134.55L172.325 134.95H172.275L172.3 134.35C172.3 134.3 172.275 134.275 172.225 134.275L169.7 134.2C169.667 134.2 169.642 134.208 169.625 134.225C169.625 134.242 169.625 134.258 169.625 134.275L169.6 134.85L171.675 134.9L171.65 135.825L169.9 135.775L169.625 134.975Z" fill="#EBEFFF"/>
<path d="M178.025 134.875H177.975V134.4C177.992 134.35 177.975 134.325 177.925 134.325L175.55 134.25C175.467 134.25 175.408 134.267 175.375 134.3C175.342 134.333 175.325 134.383 175.325 134.45V134.55C175.325 134.65 175.333 134.708 175.35 134.725C175.383 134.758 175.442 134.783 175.525 134.8L178.275 135.25C178.458 135.283 178.608 135.333 178.725 135.4C178.842 135.45 178.942 135.517 179.025 135.6C179.108 135.683 179.158 135.792 179.175 135.925C179.208 136.042 179.225 136.183 179.225 136.35L179.2 136.7C179.2 136.883 179.175 137.05 179.125 137.2C179.075 137.333 179 137.45 178.9 137.55C178.783 137.633 178.642 137.7 178.475 137.75C178.308 137.8 178.1 137.817 177.85 137.8L173.875 137.675L173.9 136.525L177.475 136.625C177.592 136.625 177.667 136.608 177.7 136.575C177.733 136.542 177.75 136.475 177.75 136.375V136.25C177.75 136.167 177.742 136.117 177.725 136.1C177.692 136.067 177.642 136.042 177.575 136.025L174.9 135.6C174.717 135.567 174.567 135.525 174.45 135.475C174.317 135.425 174.208 135.358 174.125 135.275C174.042 135.192 173.983 135.092 173.95 134.975C173.917 134.858 173.908 134.717 173.925 134.55V134.225C173.942 133.908 174.033 133.658 174.2 133.475C174.383 133.308 174.675 133.233 175.075 133.25L179.05 133.375C179.183 133.375 179.242 133.442 179.225 133.575L179.2 134.5L178.025 134.875Z" fill="#EBEFFF"/>
<path d="M179.7 137.85L179.825 133.4L181.1 133.425L180.975 137.9L179.7 137.85Z" fill="#EBEFFF"/>
<path d="M185.65 136.125C185.667 136.058 185.667 135.992 185.65 135.925C185.65 135.842 185.65 135.775 185.65 135.725V135.675L186.9 135.7L186.825 137.9C186.825 138.017 186.775 138.075 186.675 138.075L183.3 137.975C182.967 137.958 182.683 137.908 182.45 137.825C182.233 137.725 182.05 137.6 181.9 137.45C181.767 137.283 181.667 137.092 181.6 136.875C181.55 136.658 181.525 136.417 181.525 136.15L181.575 135.225C181.575 134.958 181.608 134.708 181.675 134.475C181.758 134.258 181.875 134.083 182.025 133.95C182.158 133.8 182.35 133.683 182.6 133.6C182.833 133.517 183.117 133.483 183.45 133.5L186.8 133.6C186.917 133.6 186.967 133.667 186.95 133.8L186.925 134.75L185.75 135.15H185.7V134.725C185.7 134.675 185.683 134.65 185.65 134.65L183.525 134.6C183.392 134.583 183.283 134.592 183.2 134.625C183.117 134.642 183.05 134.675 183 134.725C182.95 134.775 182.908 134.85 182.875 134.95C182.842 135.033 182.825 135.142 182.825 135.275L182.8 136.075C182.8 136.342 182.85 136.533 182.95 136.65C183.05 136.75 183.217 136.808 183.45 136.825L185.575 136.875C185.625 136.875 185.65 136.85 185.65 136.8V136.125Z" fill="#EBEFFF"/>
<path d="M189.575 133.675C189.675 133.692 189.742 133.708 189.775 133.725C189.808 133.758 189.842 133.808 189.875 133.875L191.475 137.125C191.492 137.175 191.525 137.208 191.575 137.225H191.65C191.717 137.225 191.75 137.192 191.75 137.125L191.85 133.75L193 133.8L192.875 138.075C192.875 138.192 192.817 138.25 192.7 138.25L190.875 138.2C190.792 138.2 190.733 138.183 190.7 138.15C190.65 138.133 190.608 138.092 190.575 138.025L188.9 134.75C188.883 134.7 188.85 134.675 188.8 134.675H188.725C188.675 134.675 188.642 134.708 188.625 134.775L188.525 138.125L187.375 138.1L187.525 133.8C187.525 133.683 187.583 133.625 187.7 133.625L189.575 133.675Z" fill="#EBEFFF"/>
<path style="mix-blend-mode:multiply" opacity="0.5" d="M185.65 111.325C185.25 115.975 183.85 119.225 182.325 121.4C180.25 124.4 178 125.425 178 125.425C175.75 124.45 173.8 123.225 172.125 121.9C165 116.2 162.7 108.3 162.525 107.65C165.525 114.9 169.95 119.325 173.3 121.8C176 123.8 178 124.55 178 124.55V122.225C177.467 122.025 176.95 121.8 176.45 121.55C170.55 118.575 167.45 112.375 166 108.375C166 108.358 166 108.35 166 108.35C165.2 106.175 164.9 104.65 164.9 104.65H165.975L165.625 105.4L165.6 105.425C165.767 106.175 165.967 106.9 166.2 107.6C166.2 107.617 166.2 107.633 166.2 107.65C169.5 118.075 178 121.425 178 121.425C183.9 117.075 183.775 110.15 183.775 110.15V109.2L184.9 109.525L185.65 111.325Z" fill="url(#paint46_linear_92_23864)"/>
<path style="mix-blend-mode:multiply" opacity="0.3" d="M220.65 136.6C220.65 136.6 219.05 141.85 220.55 150C220.55 150 221.325 139.675 221.875 138.775C222.45 137.875 224.05 138.3 224.05 138.3C224.05 138.3 221.55 136.9 220.65 136.6Z" fill="url(#paint47_linear_92_23864)"/>
<path style="mix-blend-mode:multiply" opacity="0.5" d="M205.075 165.1C203.675 163.875 202 161.825 200.325 158.475C196.975 151.775 196.025 147.3 195.875 146.525L196.65 145.3L197.725 135L198.725 134.4C198.725 134.4 202.275 130.475 204.975 124.55C205.008 124.65 205.05 124.792 205.1 124.975V125C205.65 127.125 206.775 135.15 207.825 138C208.475 139.8 209.5 140.775 210.25 141.275C210.25 141.275 204.1 150.425 203.8 156.925C203.525 162.85 204.85 164.8 205.075 165.1Z" fill="url(#paint48_linear_92_23864)"/>
<path style="mix-blend-mode:multiply" opacity="0.5" d="M168.55 184.125C168.55 184.125 157.45 182.3 152.925 179.4C152.908 179.4 152.9 179.392 152.9 179.375C152.95 179.125 152.975 178.883 152.975 178.65C152.875 176.15 150.7 173.925 150.4 172.5C150.45 172.65 150.775 173.4 152.35 174.75C153.35 175.6 154.85 176.7 157.125 178.025C157.175 178.075 157.233 178.108 157.3 178.125C160.5 180.025 163.25 181.3 165.25 182.25C165.25 182.25 165.258 182.25 165.275 182.25C167.075 183.1 168.225 183.65 168.525 184.125C168.542 184.125 168.55 184.125 168.55 184.125Z" fill="url(#paint49_linear_92_23864)"/>
<path style="mix-blend-mode:multiply" opacity="0.5" d="M192.275 175.3C192.225 175.725 191.225 176.675 190.95 177.7C190.95 177.7 186.875 182 171.825 180.675C171.925 180.25 175.075 180.875 182.425 179.4C189.55 177.975 192.125 175.45 192.275 175.3Z" fill="url(#paint50_linear_92_23864)"/>
<g style="mix-blend-mode:multiply" opacity="0.5">
<path d="M194.775 116.975L185.15 120.1L182.325 121.4V121.425H180.475H178L176.45 121.55L175.625 121.6L173.3 121.8L172.125 121.9L160.575 117.7L158.5 116.975L149 113.525C149.283 113.425 149.575 113.308 149.875 113.175C156.25 110.65 162.5 107.6 162.5 107.6L164.9 104.65H165.975C166.925 102.55 167.55 100.6 167.975 99.05L168.6 96.2C168.65 95.925 168.675 95.775 168.675 95.775L172.075 97.575L183.525 106.75C183.525 107.375 183.55 107.925 183.575 108.4L183.75 109.55C183.775 109.325 183.775 109.2 183.775 109.2L184.9 109.525L185.65 111.325C185.65 111.325 186.925 113.325 192 115.55C192.875 115.95 193.8 116.425 194.775 116.975Z" fill="#7A4AC0"/>
</g>
<path d="M187.45 108.2C187.45 108.2 182.95 109.2 178 106.8C173.05 104.4 168.875 97.3249 168.625 95.5749C168.375 93.7999 170.525 89.1749 170.525 85.5749C170.525 81.9749 168.75 75.7999 171.725 72.4499C174.7 69.0999 188.325 68.5999 192.75 72.8999C192.75 72.8999 194.125 76.3249 194.125 78.2749C194.125 78.7499 194.05 79.4249 193.925 80.2249C193.875 80.5249 193.825 80.8499 193.775 81.1749C193.375 83.5249 192.825 86.3999 193.075 87.6499C193.175 88.0999 193.325 88.4999 193.475 88.8749V88.8999C194.025 90.1499 194.825 91.1499 194.975 92.2499C195.175 93.6749 193.25 103.775 187.45 108.2Z" fill="url(#paint51_linear_92_23864)"/>
<path d="M170.475 84.575C170.475 84.575 169.25 81.5 166.175 81.45C166.175 81.45 164.375 82.15 164.1 83.525C164.1 83.525 164.75 88.5 165.525 90.825C166.275 93.15 169.05 92.7999 169.05 92.7999C169.05 92.7999 171.475 89.1 170.475 84.575Z" fill="url(#paint52_linear_92_23864)"/>
<path d="M182.325 94.6999C182.325 94.6999 183.35 94.6249 183.775 94.9499C184.225 95.2749 185.825 96.8499 187.875 97.2749C189.9 97.6999 191.275 95.9499 191.7 95.8749C192.15 95.7749 192.625 96.3999 192.625 96.3999C192.625 96.3999 192.425 95.6749 191.375 95.3749C191.375 95.3749 190.95 96.9999 188 96.4499C185.05 95.8749 183.775 94.5749 183.775 94.5749L183.625 94.2999C183.625 94.2999 182.8 94.4749 182.325 94.6999Z" fill="url(#paint53_linear_92_23864)"/>
<path style="mix-blend-mode:multiply" opacity="0.6" d="M177.95 79.3999L178 79.0749C178 79.0749 180.95 73.9249 186.775 73.7749C192.6 73.6249 193.925 77.2749 193.925 77.2749L195 75.6499L192.525 70.6499L175.425 70.3749L171.25 73.7249L170.725 81.9499L172.575 92.8249L177.075 95.2249L178.35 94.0999C177.875 90.4749 175.175 87.1499 175.175 87.1499L177.15 85.7749C177.15 85.7749 182.225 88.2249 185.15 87.4749C185.15 87.4749 187.35 81.0499 187.225 76.2999C187.225 76.2999 179.725 77.3999 177.95 79.3999Z" fill="url(#paint54_linear_92_23864)"/>
<path d="M177.7 79.775C177.7 79.775 177.975 77.925 181.125 77.175C184.625 76.35 187.475 75.65 187.475 75.65C187.475 75.65 186.85 77.675 185.675 78.45C185.675 78.45 181.975 78.325 180.1 78.75C178.225 79.175 177.7 79.775 177.7 79.775Z" fill="#38368E"/>
<path d="M193.925 77.275C193.925 77.275 192.125 78.65 190.925 81.925C190.925 81.925 192.1 80.4 193.15 80.425C193.875 80.45 193.775 81.175 193.775 81.175C193.775 81.175 194.5 79.225 193.925 77.275Z" fill="#38368E"/>
<path d="M178.875 85.0499C178.875 85.0499 179.075 81.1249 182.9 80.1249C182.9 80.1249 184.275 81.8999 184.425 83.8999C184.425 83.8999 182.375 83.5249 178.875 85.0499Z" fill="url(#paint55_linear_92_23864)"/>
<path d="M189.875 86.5999C189.875 86.5999 190.175 83.475 191.975 82.325C191.975 82.325 193.2 83.2499 193.075 85.8499C193.075 85.8499 192 85.4749 189.875 86.5999Z" fill="url(#paint56_linear_92_23864)"/>
<path d="M178.875 85.0499C178.875 85.0499 180.125 86.5749 183.6 86.8749C183.6 86.8749 184.275 85.8749 184.2 83.8749C184.2 83.8749 181 83.5749 178.875 85.0499Z" fill="#FFEBED"/>
<path d="M189.875 86.6V87.075C189.875 87.075 190.4 88.2 192.325 88.375C192.325 88.375 192.95 87.4 193 85.85C193 85.85 191.775 85.525 189.875 86.6Z" fill="#FFEBED"/>
<path d="M182.6 83.7999C182.6 83.7999 181.725 84.875 181.8 86.575C181.8 86.575 182.95 86.85 183.6 86.875C183.6 86.875 184.375 85.825 184.2 83.875C184.2 83.875 183.2 83.6749 182.6 83.7999Z" fill="#7F9EC9"/>
<path d="M191.7 85.9C191.7 85.9 191.2 86.425 191.1 88.075C191.1 88.075 191.775 88.375 192.325 88.375C192.325 88.375 193.025 87.375 193 85.85C193 85.85 192.5 85.65 191.7 85.9Z" fill="#7F9EC9"/>
<path d="M182.325 86.6999C182.325 86.6999 182 84.5749 183.225 83.7499L184.2 83.8749C184.2 83.8749 184.55 85.5749 183.6 86.8749C183.6 86.8749 182.625 86.7749 182.325 86.6999Z" fill="#38368E"/>
<path d="M192.125 85.7999C192.125 85.7999 191.675 86.7499 191.475 88.2249C191.475 88.2249 191.825 88.3499 192.325 88.3749C192.325 88.3749 193 87.5499 193 85.8499C193 85.8499 192.475 85.6999 192.125 85.7999Z" fill="#38368E"/>
<path d="M178.875 85.05C178.875 85.05 181.2 83.7 185.15 84.475L184.425 83.9C184.425 83.9 181.6 83.025 178.875 85.05Z" fill="#131163"/>
<path d="M189.875 86.5999C189.875 86.5999 191.725 85.6249 193.9 86.1499L193 85.4749C193 85.4749 191.55 85.2499 189.875 86.5999Z" fill="#131163"/>
<path d="M181.375 85.05C181.375 85.05 182.025 84.9 182.575 85.475C182.575 85.475 181.8 85.7 181.375 85.05Z" fill="white"/>
<path d="M190.725 86.8749C190.725 86.8749 191.7 86.6749 192.05 87.1499C192.05 87.1499 191.525 87.4999 190.725 86.8749Z" fill="white"/>
<path d="M179.1 85.275C179.1 85.275 180.9 87.05 183.8 87.475L183.875 86.425L183.6 86.875C183.6 86.875 180.825 86.725 179.1 85.275Z" fill="#C6659C"/>
<path d="M189.875 87.075C189.875 87.075 190.175 88.225 192.525 88.75L192.45 88.1749L192.325 88.375C192.325 88.375 190.65 88.175 189.875 87.075Z" fill="#C6659C"/>
<path d="M185.15 91.6749C185.15 91.6749 186.025 91.4999 187.625 91.6749C189.25 91.8749 191.05 92.2999 192.05 91.6749C192.05 91.6749 190.725 92.9999 189.6 93.1999C188.45 93.3999 186.725 92.3999 186.725 92.3999H185.975C185.975 92.3999 185.375 92.1249 185.15 91.6749Z" fill="#CB5F7D"/>
<path d="M186.075 92.4C186.075 92.4 186.475 92.15 186.8 92.225C187.125 92.275 187.475 92.75 187.475 92.75C187.475 92.75 186.775 92.4 186.075 92.4Z" fill="#9F4A8B"/>
<path d="M192.05 91.6749C192.475 91.2749 190.3 87.3749 189.25 87.2499C188.2 87.0999 187.225 91.5999 187.225 91.5999C187.225 91.5999 188.675 91.7999 190.075 91.9749C191.475 92.1749 192.05 91.6749 192.05 91.6749Z" fill="#FFBCAF"/>
<path style="mix-blend-mode:multiply" opacity="0.6" d="M193.6 79.4499C193.025 79.3749 190.925 81.9249 190.925 81.9249C190.925 81.9249 189.6 86.0249 189.875 87.2499C190.125 88.4499 193.35 89.0999 193.35 89.0999L193.475 88.8999V88.8749C193.325 88.4999 193.175 88.0999 193.075 87.6499C192.825 86.3999 193.375 83.5249 193.775 81.1749C193.775 81.1749 193.9 80.6749 193.925 80.2249C193.925 79.8499 193.875 79.4999 193.6 79.4499Z" fill="url(#paint57_linear_92_23864)"/>
<path fill-rule="evenodd" clip-rule="evenodd" d="M194.625 95.025C194.575 95.5 192.95 105.6 188.275 108.65C188.275 108.667 188.275 108.675 188.275 108.675C188.275 108.675 184.025 109.7 177.6 107.3C177.6 107.3 170.35 103.175 168.6 96.2C168.6 96.2 168.2 94.575 169.05 92.7999C169.05 92.7999 170.275 92.2999 170.825 89.0999C171.45 85.5499 169.575 83.125 169.575 83.125C169.575 83.125 169.825 81.2 169.25 79.025C168.7 76.825 167.625 74.7249 168.1 73.1749C168.575 71.6249 172.525 70.65 174.325 69.1749C174.65 68.9249 174.9 68.6749 175.125 68.4249C175.141 68.4249 175.158 68.4166 175.175 68.4C175.4 68.15 175.6 67.9 175.775 67.65L175.975 67.4249L176.175 67.2C176.7 66.575 177.35 65.975 178.725 65.35C181.475 64.075 183.4 63.875 185.375 62.1C185.391 62.0833 185.4 62.075 185.4 62.075C185.4 62.075 185.5 63.8749 184.85 65.4249C184.85 65.4249 190.9 64.075 192.325 64.075C193.75 64.075 194.225 68.5999 194.225 68.5999V68.625C194.325 68.75 196.025 71.0249 196.625 72.5999C196.975 73.4499 194.025 79.4 194.025 79.4C194.025 79.4 194.375 76.5749 192.575 73.9749L191.9 74.575C191.9 74.575 191.875 74.525 191.825 74.4249C191.55 73.9 190.575 72.325 188.875 71.875C188.875 71.875 188.875 72.2 183.525 71.65C178.175 71.075 175.975 70.8 174.7 72.025C173.425 73.25 173.9 76.15 175.075 77.125C175.075 77.125 171.825 80.5999 171.9 85.4749C172 90.1749 175.55 93.65 177.05 94.25C177.1 94.2666 177.158 94.2833 177.225 94.2999C178.6 94.6749 179.3 92.1749 187.475 93.25C193.25 94.025 192.85 94.75 193.5 96.125C193.675 96.5 194.55 95.15 194.625 95.025ZM193 98.0999C193.05 95.9499 191.525 95.25 191.225 95.375C190.95 95.5 190.1 95.925 187.725 95.775C185.375 95.625 183.775 94.2999 183.775 94.2999C183.775 94.2999 180.725 94.625 179.85 97.075C178.975 99.5499 183.025 101.175 183.775 101.125C184.55 101.05 186.425 98.9 186.425 98.9C186.425 98.9 188.5 98.75 188.875 99.125C189.25 99.5 189.475 102.375 190.625 102.575C191.75 102.775 192.975 99.5749 193 98.0999Z" fill="url(#paint58_linear_92_23864)"/>
<path d="M190.325 88.1C190.325 88.1 192.375 90.65 192.175 91.6C191.95 92.65 189.6 93.2 189.6 93.2C189.6 93.2 191.5 92.55 191.875 91.6C191.875 91.6 191.4 89.675 190.325 88.1Z" fill="#D2726C"/>
<path style="mix-blend-mode:multiply" opacity="0.6" d="M194.025 79.4C194.025 79.4 194.375 76.575 192.575 73.975C194 71.375 194.225 68.6 194.225 68.6V68.625C194.725 69.825 195 72.175 195 72.175L196.625 72.6C196.975 73.45 194.025 79.4 194.025 79.4Z" fill="url(#paint59_linear_92_23864)"/>
<path style="mix-blend-mode:multiply" opacity="0.6" d="M191.825 74.4249C191.55 73.9 190.575 72.325 188.875 71.875C188.875 71.875 188.875 72.2 183.525 71.65C178.175 71.075 175.975 70.8 174.7 72.025C173.425 73.25 173.9 76.15 175.075 77.125C175.075 77.125 171.825 80.5999 171.9 85.4749C172 90.1749 175.55 93.65 177.05 94.25L176.975 94.75C176.975 94.75 177.25 105.5 179.85 106.375C182.475 107.225 187.9 106.775 188.4 107.275C188.875 107.75 188.325 108.575 188.275 108.65C188.275 108.667 188.275 108.675 188.275 108.675C188.275 108.675 184.025 109.7 177.6 107.3C177.6 107.3 170.35 103.175 168.6 96.2C168.6 96.2 168.2 94.575 169.05 92.7999C169.05 92.7999 170.275 92.2999 170.825 89.0999C171.45 85.5499 169.575 83.125 169.575 83.125C169.575 83.125 169.825 81.2 169.25 79.025C168.7 76.825 167.625 74.7249 168.1 73.1749C171.125 73.65 173.1 72.075 173.1 72.075C173.1 72.075 173.65 71.325 175.975 70.95C178.325 70.575 187.75 71.525 187.75 71.525C187.75 71.525 186.8 70.7499 184.825 70.2249C182.95 69.7249 176.525 70.2999 175.825 70.3499C176.575 70.2249 183.85 68.9749 184.675 69.2249C185.55 69.4749 188.7 70.9249 188.7 70.9249C188.425 69.4749 185.6 66 185.6 66C185.6 66 181.625 66.075 179.025 66.625C176.7 67.1 175.425 68.175 175.175 68.4L175.775 67.65L175.975 67.4249L176.175 67.2L177.075 67.0499L181.65 65.2C183.175 64.375 185.15 62.35 185.375 62.1C185.391 62.0833 185.4 62.075 185.4 62.075C185.4 62.075 185.5 63.8749 184.85 65.4249C188.7 64.9499 190 65.2 190 65.2C191.75 67.675 191.825 74.4249 191.825 74.4249Z" fill="url(#paint60_linear_92_23864)"/>
<path style="mix-blend-mode:multiply" opacity="0.5" d="M177.6 107.3C177.6 107.3 179.95 106.75 183.525 106.9C187.1 107.025 189.15 107.05 188.275 108.675C188.275 108.675 183.775 109.675 177.6 107.3Z" fill="url(#paint61_linear_92_23864)"/>
<path d="M190 65.1999C190 65.1999 192.175 64.3499 193.025 64.4999C193.025 64.4999 192.7 64.0499 192.35 63.9499C191.975 63.8499 184.85 65.4249 184.85 65.4249C184.85 65.4249 189.3 64.9249 190 65.1999Z" fill="url(#paint62_linear_92_23864)"/>
<path d="M185.6 65.9999C185.6 65.9999 185.425 68.3749 184.675 69.2249L175.825 70.3499L173.225 69.8999C173.225 69.8999 174.25 69.4749 175.35 68.1749C176.45 66.8999 182.225 65.6249 185.6 65.9999Z" fill="url(#paint63_linear_92_23864)"/>
<path d="M194.225 68.6C194.225 68.6 194.95 70.925 195 72.175L196.625 72.6C196.625 72.6 196.125 70.825 194.225 68.6Z" fill="url(#paint64_linear_92_23864)"/>
<path style="mix-blend-mode:multiply" opacity="0.8" d="M170.125 88.7499C170.125 88.7499 169.5 85.7499 167.975 84.2749C166.45 82.7999 164.7 83.2749 164.7 83.2749C164.7 83.2749 165.175 88.8249 165.675 90.1749C166.175 91.5249 166.925 91.8749 166.925 91.8749C166.925 91.8749 165.875 90.9249 165.725 89.0999C165.575 87.2749 165.55 84.6999 165.95 84.3749C166.35 84.0749 167.975 85.2749 167.975 85.2749C167.975 85.2749 167.45 85.8999 167.15 87.5249C166.85 89.1749 167.975 90.3499 168.4 90.3249C168.825 90.2999 168.375 88.4499 168.45 87.8999C168.525 87.3749 169.475 87.4749 170.125 88.7499Z" fill="url(#paint65_linear_92_23864)"/>
<path style="mix-blend-mode:multiply" opacity="0.8" d="M168.6 85.025C168.6 85.025 166.925 86.125 167.1 88.375C167.3 90.625 168.575 90.525 168.575 90.05C168.575 89.575 168.325 88.35 168.475 87.675C168.6 87 169.7 87.3 169.7 87.3C169.7 87.3 168.975 85.525 168.6 85.025Z" fill="url(#paint66_linear_92_23864)"/>
<path d="M194.625 95.025C194.625 95.025 192.575 104.45 188.275 108.675C188.275 108.675 193.175 106.75 194.625 95.025Z" fill="#34C7FF"/>
<path d="M192.35 63.95C192.35 63.95 193.425 64.8 193.625 67.75C193.85 70.7 192.575 73.9749 192.575 73.9749C192.575 73.9749 194.2 71.525 194.375 68.825C194.525 66.15 193.2 64.275 192.35 63.95Z" fill="#34C7FF"/>
<path d="M179.125 70.125C179.125 70.125 181.65 70.975 184.425 71.225C187.175 71.475 187.75 71.525 187.75 71.525C187.75 71.525 186.65 70.45 184.275 70.125C181.9 69.8 179.125 70.125 179.125 70.125Z" fill="url(#paint67_linear_92_23864)"/>
<path d="M191.325 95.225C191.325 95.225 192.525 95.225 193 96.75C193.375 97.95 193.5 99 193.5 99L193.925 97.325C193.925 97.325 193.35 95.225 192.775 94.75C192.35 94.425 191.65 94.075 191.3 94.15L191.325 95.225Z" fill="url(#paint68_linear_92_23864)"/>
<path d="M188.075 93.7249L188.275 95.5249C188.275 95.5249 189.75 95.6249 190.725 95.2249L190.9 94.1499C190.9 94.1499 189.025 93.6749 188.075 93.7249Z" fill="url(#paint69_linear_92_23864)"/>
<path d="M194.775 116.975C194.775 116.975 203.4 123.275 204.5 125.425C205.625 127.6 206.075 134.375 207.6 137.325C207.6 137.325 206.55 132.525 205.825 128.75C205.1 124.975 205.275 124.925 204.875 124C204.475 123.075 198.05 118.625 194.775 116.975Z" fill="#34C7FF"/>
<path d="M193.225 152C193.225 152 189.075 169.775 189.275 170.975C189.475 172.175 192.15 174.625 192.275 175.3C192.275 175.3 190.225 178.05 190.325 178.65C190.4 179.275 193.925 183.125 193.825 184.3C193.8 184.65 191.525 188.4 191.525 188.4C191.525 188.4 194.1 184.725 194.225 184.125C194.35 183.55 191.075 178.625 190.975 178.125C190.725 176.825 192.6 175.875 192.675 175.025C192.725 174.175 190.125 172.075 190.1 170.7C190.075 169.3 193.225 152 193.225 152Z" fill="#34C7FF"/>
<path d="M194.075 194.375C194.075 194.375 203.05 214.675 206.125 235C206.125 235 205.6 215.175 194.075 194.375Z" fill="#34C7FF"/>
<path d="M137.175 112.9C137.175 112.9 134.85 112.4 133.9 110.375C132.925 108.35 133.55 105.425 133.55 105.425C133.55 105.425 135.375 108.9 136.275 110.1C137.175 111.3 137.425 112.65 137.175 112.9Z" fill="#FFBCAF"/>
<path opacity="0.6" d="M208.825 102.3L210.45 148.2C210.5 150.025 212 151.475 213.825 151.475H292.875C294.725 151.475 296.225 150 296.275 148.175L297.375 101.725C297.425 99.8249 295.875 98.25 293.975 98.275L212.175 98.7999C210.275 98.8249 208.75 100.4 208.825 102.3Z" fill="#36D1F7"/>
<path fill-rule="evenodd" clip-rule="evenodd" d="M292.875 151.6H213.825C211.925 151.6 210.375 150.1 210.325 148.2L208.7 102.3C208.675 101.35 209.025 100.45 209.675 99.75C210.35 99.075 211.225 98.7 212.175 98.675L293.975 98.15C294.925 98.15 295.825 98.5 296.5 99.2C297.175 99.875 297.525 100.775 297.5 101.725L296.4 148.175C296.35 150.1 294.8 151.6 292.875 151.6ZM294 98.4C293.983 98.4 293.975 98.4 293.975 98.4L212.2 98.925C211.3 98.95 210.475 99.3 209.85 99.925C209.25 100.575 208.925 101.425 208.95 102.3L210.575 148.2C210.625 149.975 212.05 151.35 213.825 151.35H292.875C294.65 151.35 296.1 149.925 296.15 148.175L297.25 101.725C297.275 100.85 296.95 100 296.325 99.375C295.7 98.75 294.875 98.4 294 98.4Z" fill="#744CA2"/>
<path style="mix-blend-mode:multiply" opacity="0.6" d="M208.95 104.65H297.275L297.425 102.225C297.55 100.075 295.825 98.2749 293.7 98.2999L211.95 98.9499C210.225 98.9499 208.875 100.375 208.9 102.075L208.95 104.65Z" fill="url(#paint70_linear_92_23864)"/>
<path style="mix-blend-mode:multiply" opacity="0.3" d="M213.4 108.35V134.9H240.425V108.2L213.4 108.35Z" fill="url(#paint71_linear_92_23864)"/>
<path style="mix-blend-mode:multiply" opacity="0.3" d="M278.325 121.9H266.55V110.125H278.325V121.9Z" fill="url(#paint72_linear_92_23864)"/>
<path style="mix-blend-mode:multiply" opacity="0.3" d="M292.2 121.9H280.425V110.125H292.2V121.9Z" fill="url(#paint73_linear_92_23864)"/>
<path style="mix-blend-mode:multiply" opacity="0.3" d="M264.2 121.9H252.45V110.125H264.2V121.9Z" fill="url(#paint74_linear_92_23864)"/>
<g style="mix-blend-mode:multiply">
<path d="M292.2 131.575H262.125V128.75H292.2V131.575Z" fill="#D1D4FB"/>
</g>
<g style="mix-blend-mode:multiply">
<path d="M292.2 133.9H254.6V133.025H292.2V133.9Z" fill="#D1D4FB"/>
</g>
<g style="mix-blend-mode:multiply">
<path d="M262.15 124.275H254.95V123.4H262.15V124.275Z" fill="#D1D4FB"/>
</g>
<g style="mix-blend-mode:multiply">
<path d="M276.025 124.275H268.85V123.4H276.025V124.275Z" fill="#D1D4FB"/>
</g>
<g style="mix-blend-mode:multiply">
<path d="M289.9 124.275H282.725V123.4H289.9V124.275Z" fill="#D1D4FB"/>
</g>
<g style="mix-blend-mode:multiply">
<path d="M264.55 135.325H252.45V134.45H264.55V135.325Z" fill="#D1D4FB"/>
</g>
<g style="mix-blend-mode:multiply">
<path d="M292.2 136.725H254.6V135.85H292.2V136.725Z" fill="#D1D4FB"/>
</g>
<g style="mix-blend-mode:multiply">
<path d="M292.2 138.125H252.45V137.25H292.2V138.125Z" fill="#D1D4FB"/>
</g>
<g style="mix-blend-mode:multiply">
<path d="M292.2 139.525H252.45V138.65H292.2V139.525Z" fill="#D1D4FB"/>
</g>
<g style="mix-blend-mode:multiply">
<path d="M292.2 145.2H254.6V144.325H292.2V145.2Z" fill="#D1D4FB"/>
</g>
<g style="mix-blend-mode:multiply">
<path d="M292.2 146.6H252.45V145.725H292.2V146.6Z" fill="#D1D4FB"/>
</g>
<g style="mix-blend-mode:multiply">
<path d="M292.2 148H252.45V147.125H292.2V148Z" fill="#D1D4FB"/>
</g>
<g style="mix-blend-mode:multiply">
<path d="M290.6 140.925H252.45V140.05H290.6V140.925Z" fill="#D1D4FB"/>
</g>
<g style="mix-blend-mode:multiply">
<path d="M292.2 142.325H254.6V141.45H292.2V142.325Z" fill="#D1D4FB"/>
</g>
<g style="mix-blend-mode:multiply">
<path d="M284.65 143.725H252.45V142.85H284.65V143.725Z" fill="#D1D4FB"/>
</g>
<g style="mix-blend-mode:soft-light">
<path fill-rule="evenodd" clip-rule="evenodd" d="M220.975 129.575C216.725 129.575 213.275 126.125 213.275 121.9C213.275 117.65 216.725 114.2 220.975 114.2C225.2 114.2 228.65 117.65 228.65 121.9C228.65 126.125 225.2 129.575 220.975 129.575ZM220.975 114.7C217 114.7 213.775 117.925 213.775 121.9C213.775 125.85 217 129.075 220.975 129.075C224.925 129.075 228.15 125.85 228.15 121.9C228.15 117.925 224.925 114.7 220.975 114.7Z" fill="#E0FFFF"/>
</g>
<path d="M225.15 121.9C225.15 124.2 223.275 126.075 220.975 126.075C218.65 126.075 216.775 124.2 216.775 121.9C216.775 119.575 218.65 117.7 220.975 117.7C223.275 117.7 225.15 119.575 225.15 121.9Z" fill="white"/>
<g style="mix-blend-mode:soft-light">
<path fill-rule="evenodd" clip-rule="evenodd" d="M240.425 115.9C236.175 115.9 232.725 112.45 232.725 108.2C232.725 103.975 236.175 100.525 240.425 100.525C244.675 100.525 248.125 103.975 248.125 108.2C248.125 112.45 244.675 115.9 240.425 115.9ZM240.425 101.025C236.45 101.025 233.225 104.25 233.225 108.2C233.225 112.175 236.45 115.4 240.425 115.4C244.4 115.4 247.625 112.175 247.625 108.2C247.625 104.25 244.4 101.025 240.425 101.025Z" fill="#E0FFFF"/>
</g>
<path d="M244.35 108.2C244.35 110.375 242.6 112.15 240.425 112.15C238.25 112.15 236.5 110.375 236.5 108.2C236.5 106.025 238.25 104.275 240.425 104.275C242.6 104.275 244.35 106.025 244.35 108.2Z" fill="white"/>
<g style="mix-blend-mode:soft-light">
<path d="M212.05 101.05L212.6 100.2L215.65 102.85L215.175 103.5L212.05 101.05Z" fill="white"/>
<path d="M215.725 101.05L215.15 100.2L212.125 102.85L212.575 103.5L215.725 101.05Z" fill="white"/>
</g>
<path d="M295.15 102.125H267.925V100.775H295.15V102.125Z" fill="white"/>
<path d="M124.675 81.05V92.875L138.8 93L139 80.675L124.675 81.05Z" fill="url(#paint75_linear_92_23864)"/>
<path d="M139 80.675L139.925 82.225L139.45 92.975L138.8 93L139 80.675Z" fill="url(#paint76_linear_92_23864)"/>
<path d="M127.2 85.05L128.5 83.15L135.55 89.075L134.475 90.525L127.2 85.05Z" fill="white"/>
<path d="M135.75 85.05L134.425 83.15L127.375 89.075L128.45 90.525L135.75 85.05Z" fill="white"/>
<path opacity="0.8" d="M157.625 220.1H109.3C107.15 220.1 105.375 218.375 105.325 216.225L104.425 176.575C104.375 174.35 106.175 172.525 108.4 172.525H158.725C160.95 172.525 162.75 174.35 162.675 176.575L161.6 216.25C161.525 218.375 159.775 220.1 157.625 220.1Z" fill="url(#paint77_linear_92_23864)"/>
<path fill-rule="evenodd" clip-rule="evenodd" d="M157.625 220.225H109.3C107.1 220.225 105.25 218.425 105.2 216.225L104.3 176.575C104.275 175.475 104.7 174.425 105.475 173.625C106.25 172.825 107.275 172.4 108.4 172.4H158.725C159.825 172.4 160.875 172.825 161.65 173.625C162.425 174.425 162.825 175.475 162.8 176.6L161.725 216.25C161.65 218.475 159.875 220.225 157.625 220.225ZM108.4 172.65C107.35 172.65 106.375 173.05 105.65 173.8C104.925 174.55 104.525 175.525 104.55 176.575L105.45 216.225C105.5 218.275 107.225 219.975 109.3 219.975H157.625C159.725 219.975 161.4 218.325 161.475 216.225L162.55 176.575C162.575 175.55 162.2 174.55 161.475 173.8C160.75 173.05 159.775 172.65 158.725 172.65H108.4Z" fill="#473DA2"/>
<path d="M142.875 181.725H117.45V180.625H142.875V181.725Z" fill="white"/>
<path d="M130.175 184.375H117.45V183.275H130.175V184.375Z" fill="white"/>
<path d="M130.175 186.575H117.45V185.5H130.175V186.575Z" fill="white"/>
<path d="M141.725 186.575H131.6V185.5H141.725V186.575Z" fill="white"/>
<path d="M137.95 188.775H117.45V187.7H137.95V188.775Z" fill="white"/>
<path d="M124.75 191H117.45V189.9H124.75V191Z" fill="white"/>
<path d="M138.875 197.625H126.25V196.55H138.875V197.625Z" fill="white"/>
<path d="M140.325 193.2H117.45V192.125H140.325V193.2Z" fill="white"/>
<path d="M135.05 195.425H117.45V194.325H135.05V195.425Z" fill="white"/>
<path d="M125.725 197.625H117.45V196.55H125.725V197.625Z" fill="white"/>
<path d="M130.175 199.85H117.45V198.75H130.175V199.85Z" fill="white"/>
<path d="M121.1 202.05H117.45V200.95H121.1V202.05Z" fill="white"/>
<path d="M135.85 202.05H122.6V200.95H135.85V202.05Z" fill="white"/>
<path d="M138.875 204.2H126.25V203.1H138.875V204.2Z" fill="white"/>
<path d="M125.725 204.2H117.45V203.1H125.725V204.2Z" fill="white"/>
<path d="M130.175 206.4H117.45V205.325H130.175V206.4Z" fill="white"/>
<path d="M121.1 208.625H117.45V207.525H121.1V208.625Z" fill="white"/>
<path d="M135.85 208.625H122.6V207.525H135.85V208.625Z" fill="white"/>
<path d="M287.35 89.425C287.35 90.65 286.35 91.65 285.125 91.65C283.9 91.65 282.9 90.65 282.9 89.425C282.9 88.175 283.9 87.175 285.125 87.175C286.35 87.175 287.35 88.175 287.35 89.425Z" fill="url(#paint78_linear_92_23864)"/>
<path d="M77.8999 141.25C77.8999 142.775 76.6749 144.025 75.1249 144.025C73.5999 144.025 72.3499 142.775 72.3499 141.25C72.3499 139.7 73.5999 138.45 75.1249 138.45C76.6749 138.45 77.8999 139.7 77.8999 141.25Z" fill="url(#paint79_linear_92_23864)"/>
<path d="M293.925 89.425C293.925 90.65 292.925 91.65 291.675 91.65C290.45 91.65 289.45 90.65 289.45 89.425C289.45 88.175 290.45 87.175 291.675 87.175C292.925 87.175 293.925 88.175 293.925 89.425Z" fill="url(#paint80_linear_92_23864)"/>
<path d="M149.175 104.775C149.175 105.65 148.475 106.375 147.6 106.375C146.725 106.375 146.025 105.65 146.025 104.775C146.025 103.9 146.725 103.2 147.6 103.2C148.475 103.2 149.175 103.9 149.175 104.775Z" fill="url(#paint81_linear_92_23864)"/>
<path d="M255 174.5C255 175.375 254.3 176.075 253.425 176.075C252.55 176.075 251.85 175.375 251.85 174.5C251.85 173.625 252.55 172.925 253.425 172.925C254.3 172.925 255 173.625 255 174.5Z" fill="url(#paint82_linear_92_23864)"/>
<path d="M90.575 190.25C90.575 191.025 89.95 191.675 89.175 191.675C88.4 191.675 87.75 191.025 87.75 190.25C87.75 189.475 88.4 188.85 89.175 188.85C89.95 188.85 90.575 189.475 90.575 190.25Z" fill="url(#paint83_linear_92_23864)"/>
<path opacity="0.7" d="M113.25 176.375H88.8498C86.8748 176.375 85.2748 174.825 85.1998 172.875L84.6748 156.825C84.5998 154.75 86.2498 153.05 88.2998 153.05H113.725C115.8 153.05 117.45 154.75 117.375 156.8L116.875 172.85C116.825 174.825 115.225 176.375 113.25 176.375Z" fill="url(#paint84_linear_92_23864)"/>
<path fill-rule="evenodd" clip-rule="evenodd" d="M113.25 176.5H88.8498C86.7998 176.5 85.1498 174.9 85.0748 172.875L84.5498 156.825C84.4998 155.8 84.8748 154.825 85.5998 154.075C86.3248 153.325 87.2748 152.925 88.2998 152.925H113.75C114.775 152.925 115.725 153.325 116.45 154.075C117.15 154.8 117.525 155.775 117.5 156.8L117 172.85C116.95 174.9 115.3 176.5 113.25 176.5ZM88.2998 153.175C87.3498 153.175 86.4498 153.55 85.7748 154.25C85.0998 154.95 84.7498 155.85 84.7998 156.825L85.3248 172.85C85.3998 174.775 86.9498 176.25 88.8498 176.25H113.25C115.15 176.25 116.7 174.775 116.75 172.85L117.25 156.8C117.275 155.85 116.925 154.925 116.25 154.25C115.6 153.55 114.7 153.175 113.75 153.175H88.2998Z" fill="#953DA2"/>
<path d="M95.3499 158.825L89.325 165.8L95.4749 171V168.3L91.9249 165.25L95.2 161.525L95.3499 158.825Z" fill="white"/>
<path d="M105.925 159.125L111.95 166.1L105.825 171.3V168.625L109.35 165.55L105.425 161.375L105.925 159.125Z" fill="white"/>
<path d="M96.6748 171L101.9 159.45H104.375L98.4248 171H96.6748Z" fill="white"/>
<path opacity="0.7" d="M277.4 209.4H246.875C244.425 209.4 242.425 207.475 242.325 205L241.65 184.925C241.575 182.35 243.625 180.225 246.2 180.225H278.025C280.6 180.225 282.65 182.35 282.575 184.925L281.975 205C281.9 207.45 279.875 209.4 277.4 209.4Z" fill="url(#paint85_linear_92_23864)"/>
<path fill-rule="evenodd" clip-rule="evenodd" d="M277.4 209.525H246.875C244.35 209.525 242.3 207.55 242.2 205.025L241.525 184.925C241.5 183.65 241.95 182.45 242.85 181.525C243.725 180.6 244.925 180.1 246.2 180.1H278.025C279.3 180.1 280.5 180.6 281.375 181.525C282.275 182.425 282.75 183.65 282.7 184.925L282.1 205C282 207.55 279.95 209.525 277.4 209.525ZM246.2 180.35C245 180.35 243.875 180.825 243.025 181.7C242.175 182.575 241.75 183.725 241.775 184.925L242.45 205C242.55 207.4 244.475 209.275 246.875 209.275H277.4C279.825 209.275 281.775 207.4 281.85 205L282.45 184.925C282.5 183.7 282.05 182.55 281.2 181.7C280.375 180.825 279.225 180.35 278.025 180.35H246.2Z" fill="#953DA2"/>
<g style="mix-blend-mode:multiply">
<path d="M275.725 200.05H247.775V183.45H275.725V200.05Z" fill="#D1D4FB"/>
</g>
<path d="M259.275 187.575V195.95L266.425 191.375L259.275 187.575Z" fill="white"/>
<g style="mix-blend-mode:multiply">
<path d="M275.725 204.625H247.775V203.125H275.725V204.625Z" fill="#D1D4FB"/>
</g>
<path d="M255 203.125V204.625H247.775V203.125H255Z" fill="white"/>
<path fill-rule="evenodd" clip-rule="evenodd" d="M229.775 186.5C229.408 187.083 229.016 187.617 228.6 188.1L229.3 190.05L226.35 192.275L226.05 190.075C225.45 190.35 224.825 190.5 224.25 190.5L223.95 191.5L223.55 192.975L220.925 191.95L221.925 189.625C221.475 189.25 221.1 188.75 220.8 188.15L219.15 189.7L218.375 186.025L220.1 184.95C220.075 184.15 220.125 183.3 220.3 182.4L218.675 182.125L220.2 177.95L221.625 178.75C222.05 177.975 222.525 177.275 223.05 176.675L222.375 174.7L225.325 172.475L225.625 174.7C226.225 174.425 226.825 174.275 227.425 174.275L228.075 171.925L230.75 172.8L229.725 175.125C229.825 175.208 229.925 175.3 230.025 175.4C230.358 175.75 230.633 176.158 230.85 176.625L232.5 175.05L233.275 178.725L231.575 179.8C231.6 180.475 231.55 181.175 231.425 181.9C231.408 182.05 231.383 182.2 231.35 182.35L233 182.625L231.475 186.8L230.05 186C229.95 186.167 229.858 186.333 229.775 186.5ZM225.825 182.375L227.3 178.2C227.8 178.575 226.65 180.075 225.825 182.375ZM224.375 186.55C224.75 186.45 225.025 184.7 225.825 182.4L224.375 186.55Z" fill="url(#paint86_linear_92_23864)"/>
<path fill-rule="evenodd" clip-rule="evenodd" d="M229.775 186.5L227.475 187.9L229.3 190.05L226.35 192.275L223.95 191.5L222.575 191.05L222.95 191.775L223.55 192.975L219.775 191.75L217.15 190.725L218 188.775L215.375 188.475L216.75 183.525L219.5 175.9L218.6 173.475L221.55 171.25L223.85 172.35L224.325 170.55L226.975 171.575L228.075 171.925L230.75 172.8L230.025 174.25L232.5 175.05L233.075 178.625L231.35 179.475L231.175 181.775L231.425 181.9L233 182.625L231.475 186.8L229.775 186.5ZM228.725 173.825L229.425 175.5L230.025 174.25L228.725 173.825ZM224.375 186.575L225.825 182.4L227.3 178.225C225.825 177.7 223.975 179.15 223.175 181.475C222.375 183.775 222.9 186.05 224.375 186.575Z" fill="url(#paint87_linear_92_23864)"/>
<path fill-rule="evenodd" clip-rule="evenodd" d="M226.275 184.775C225.85 185.55 225.375 186.25 224.825 186.875L225.525 188.825L222.575 191.05L222.275 188.85C221.675 189.125 221.075 189.25 220.475 189.275L219.775 191.75L217.15 190.725L218.15 188.4C217.7 188.025 217.325 187.5 217.025 186.9L215.375 188.475L214.6 184.8L216.325 183.725C216.3 182.925 216.375 182.05 216.55 181.175L214.9 180.9L216.425 176.725L217.85 177.525C218.275 176.75 218.75 176.05 219.275 175.45L218.6 173.475L221.55 171.25L221.85 173.45C222.45 173.2 223.05 173.05 223.65 173.05L224.325 170.55L226.975 171.575L225.95 173.9C226.425 174.275 226.8 174.8 227.075 175.4L228.725 173.825L229.525 177.5L227.8 178.575C227.825 179.375 227.75 180.25 227.575 181.125L229.225 181.4L227.7 185.575L226.275 184.775ZM224.7 182.075C225.5 179.775 224.975 177.5 223.525 176.975C222.05 176.475 220.2 177.925 219.4 180.225C218.6 182.525 219.125 184.8 220.6 185.325C222.05 185.85 223.9 184.375 224.7 182.075Z" fill="url(#paint88_linear_92_23864)"/>
<g style="mix-blend-mode:multiply" opacity="0.5">
<path d="M233.275 178.725L229.525 177.5L227.8 178.575L231.575 179.8L233.275 178.725Z" fill="#601734"/>
</g>
<g style="mix-blend-mode:soft-light">
<path d="M229.3 190.05L225.525 188.825L224.825 186.875L228.6 188.1L229.3 190.05Z" fill="#B3D9FF"/>
</g>
<g style="mix-blend-mode:multiply" opacity="0.5">
<path d="M225.95 173.9L228.025 174.5L228.725 173.825L230.1 174.275L230.75 172.8L226.975 171.575L225.95 173.9Z" fill="#601734"/>
</g>
<g style="mix-blend-mode:multiply" opacity="0.5">
<path d="M220.475 189.275L222.45 190.075L222.275 188.85C222.275 188.85 221.225 189.4 220.475 189.275Z" fill="#601734"/>
</g>
<g style="mix-blend-mode:multiply" opacity="0.5">
<path d="M220.775 177.95L224.1 179.7C224.1 179.7 224.575 179.075 224.95 178.8C224.95 178.8 224.075 175.125 220.775 177.95Z" fill="#601734"/>
</g>
<path d="M144.4 53.475L147.6 59.9L145.45 60.875L142.45 54.975L144.4 53.475Z" fill="#FF1D9C"/>
<path d="M72.1748 203.15L75.1498 206.4L76.2998 205.075L73.4998 201.975L72.1748 203.15Z" fill="#6877FF"/>
<path d="M223.05 92.6749L220.075 94.5L218.875 92.2249L222.15 90.325L223.05 92.6749Z" fill="#4F31E0"/>
<path d="M237.775 207.55L233.5 210.575L232.3 208.325L236.45 205.875L237.775 207.55Z" fill="#4F31E0"/>
<path d="M232.125 77.15L231.4 60.325H253.425L252.525 77.0999L232.125 77.15Z" fill="url(#paint89_linear_92_23864)"/>
<path d="M231.4 60.325L230.725 61.2999L231.4 77.15H232.125L231.4 60.325Z" fill="url(#paint90_linear_92_23864)"/>
<path d="M238.7 63.6749L235.25 63.2999L235.725 74.8499L238.7 74.5499V73.3499L236.975 73.3999L236.775 64.4999L238.7 64.5499V63.6749Z" fill="white"/>
<path d="M245.8 63.6749L249.25 63.2999L248.775 74.8499L245.8 74.5499V73.3499L247.525 73.3999L247.725 64.4999L245.8 64.5499V63.6749Z" fill="white"/>
<path d="M80.1749 114L80.6749 102.525H65.6499L66.2749 113.95L80.1749 114Z" fill="url(#paint91_linear_92_23864)"/>
<path d="M80.6748 102.525L81.1248 103.2L80.6748 114H80.1748L80.6748 102.525Z" fill="url(#paint92_linear_92_23864)"/>
<path d="M74.8749 104.825C74.8749 104.825 76.5249 104.775 76.8249 104.9C77.0999 105.025 76.7499 107.725 76.7499 107.725L77.3999 108.325L76.7999 108.9C76.7999 108.9 76.8249 111.625 76.4249 111.85C76.0499 112.075 74.7249 111.85 74.7249 111.85V111.175C74.7249 111.175 75.7999 111.25 75.9749 111.1C76.1499 110.95 76.1499 108.575 76.1499 108.575L76.4249 108.275L76.1499 107.925C76.1499 107.925 76.1999 106.225 76.1749 105.75C76.1499 105.45 74.8749 105.425 74.8749 105.425V104.825Z" fill="white"/>
<path d="M71.0999 104.825C71.0999 104.825 69.4749 104.775 69.1749 104.9C68.8749 105.025 69.2499 107.725 69.2499 107.725L68.5999 108.325L69.1999 108.9C69.1999 108.9 69.1749 111.625 69.5499 111.85C69.9499 112.075 71.2749 111.85 71.2749 111.85V111.175C71.2749 111.175 70.1999 111.25 70.0249 111.1C69.8249 110.95 69.8499 108.575 69.8499 108.575L69.5499 108.275L69.8499 107.925C69.8499 107.925 69.7999 106.225 69.8249 105.75C69.8499 105.45 71.0999 105.425 71.0999 105.425V104.825Z" fill="white"/>
<path fill-rule="evenodd" clip-rule="evenodd" d="M206.925 78.675L203.25 69.025L212.8 71.025L206.925 78.675ZM203.625 69.375L207 78.175L212.35 71.2L203.625 69.375Z" fill="#744CA2"/>
<path d="M233.3 215.25L233.1 215.1L236.35 210.7L236.55 210.85L233.3 215.25Z" fill="#744CA2"/>
<path d="M202.95 174.575L199.475 170.25L199.675 170.1L203.15 174.425L202.95 174.575Z" fill="#744CA2"/>
<path d="M95.8001 204.95L88.8501 199.9L89.0001 199.7L95.9501 204.75L95.8001 204.95Z" fill="#744CA2"/>
<path d="M89.9 205.8L89.7 205.65L94.9 198.85L95.0999 199L89.9 205.8Z" fill="#744CA2"/>
<path d="M84.6 131.175L80.125 128.825L80.225 128.6L84.725 130.975L84.6 131.175Z" fill="#744CA2"/>
<path d="M257.025 70.675L256.85 70.525L262.025 64.6L262.2 64.775L257.025 70.675Z" fill="#744CA2"/>
<path d="M158.4 89.75L156.075 85.1L156.3 85L158.6 89.65L158.4 89.75Z" fill="#744CA2"/>
<path d="M119.55 168.575L119.4 168.4L125.35 163.4L125.5 163.6L119.55 168.575Z" fill="#744CA2"/>
</g>
<defs>
<linearGradient id="paint0_linear_92_23864" x1="81.4034" y1="157.341" x2="81.4034" y2="123.172" gradientUnits="userSpaceOnUse">
<stop stop-color="#DBCCFF"/>
<stop offset="1" stop-color="#D1BBFF"/>
</linearGradient>
<linearGradient id="paint1_linear_92_23864" x1="81.9911" y1="158.599" x2="81.9911" y2="124.431" gradientUnits="userSpaceOnUse">
<stop stop-color="#B5A6E7"/>
<stop offset="1" stop-color="#7760BF"/>
</linearGradient>
<linearGradient id="paint2_linear_92_23864" x1="99.1609" y1="150.509" x2="99.1609" y2="136.124" gradientUnits="userSpaceOnUse">
<stop stop-color="#B5A6E7"/>
<stop offset="1" stop-color="#7760BF"/>
</linearGradient>
<linearGradient id="paint3_linear_92_23864" x1="105.626" y1="137.49" x2="109.485" y2="135.688" gradientUnits="userSpaceOnUse">
<stop stop-color="#8B8BE0"/>
<stop offset="1" stop-color="#A177B7"/>
</linearGradient>
<linearGradient id="paint4_linear_92_23864" x1="107.633" y1="137.975" x2="106.542" y2="135.64" gradientUnits="userSpaceOnUse">
<stop stop-color="white"/>
<stop offset="1" stop-color="#A177B7"/>
</linearGradient>
<linearGradient id="paint5_linear_92_23864" x1="44.6026" y1="184.253" x2="37.6002" y2="169.268" gradientUnits="userSpaceOnUse">
<stop/>
<stop offset="1" stop-color="white"/>
</linearGradient>
<linearGradient id="paint6_linear_92_23864" x1="158.061" y1="235" x2="158.061" y2="190.395" gradientUnits="userSpaceOnUse">
<stop stop-color="#6456C0"/>
<stop offset="1" stop-color="#5F2C95"/>
</linearGradient>
<radialGradient id="paint7_radial_92_23864" cx="0" cy="0" r="1" gradientUnits="userSpaceOnUse" gradientTransform="translate(151.43 218.958) rotate(12.9931) scale(8.96221 8.96221)">
<stop stop-color="#4B474B"/>
<stop offset="1"/>
</radialGradient>
<radialGradient id="paint8_radial_92_23864" cx="0" cy="0" r="1" gradientUnits="userSpaceOnUse" gradientTransform="translate(193.03 218.733) rotate(-15.6587) scale(8.96237 8.96237)">
<stop stop-color="#4B474B"/>
<stop offset="1"/>
</radialGradient>
<linearGradient id="paint9_linear_92_23864" x1="158.713" y1="203.661" x2="170.412" y2="203.661" gradientUnits="userSpaceOnUse">
<stop stop-color="#9E8CEF"/>
<stop offset="1" stop-color="#CAAFEE"/>
</linearGradient>
<linearGradient id="paint10_linear_92_23864" x1="186.051" y1="203.661" x2="174.351" y2="203.661" gradientUnits="userSpaceOnUse">
<stop stop-color="#9E8CEF"/>
<stop offset="1" stop-color="#CAAFEE"/>
</linearGradient>
<linearGradient id="paint11_linear_92_23864" x1="149.883" y1="235" x2="149.883" y2="190.395" gradientUnits="userSpaceOnUse">
<stop stop-color="#CCCCFF"/>
<stop offset="1" stop-color="#755CBB"/>
</linearGradient>
<linearGradient id="paint12_linear_92_23864" x1="160.945" y1="212.697" x2="160.945" y2="200.531" gradientUnits="userSpaceOnUse">
<stop stop-color="#CCCCFF"/>
<stop offset="1" stop-color="#755CBB"/>
</linearGradient>
<linearGradient id="paint13_linear_92_23864" x1="158.038" y1="208.224" x2="158.038" y2="196.304" gradientUnits="userSpaceOnUse">
<stop stop-color="#CCCCFF"/>
<stop offset="1" stop-color="#755CBB"/>
</linearGradient>
<linearGradient id="paint14_linear_92_23864" x1="166.124" y1="123.225" x2="166.124" y2="105.42" gradientUnits="userSpaceOnUse">
<stop stop-color="#D5CDF8"/>
<stop offset="1" stop-color="#F3EDFB"/>
</linearGradient>
<linearGradient id="paint15_linear_92_23864" x1="165.605" y1="105.42" x2="183.937" y2="105.42" gradientUnits="userSpaceOnUse">
<stop stop-color="#CCCCFF"/>
<stop offset="1" stop-color="#755CBB"/>
</linearGradient>
<linearGradient id="paint16_linear_92_23864" x1="122.228" y1="194.365" x2="122.228" y2="104.645" gradientUnits="userSpaceOnUse">
<stop stop-color="#9E8CEF"/>
<stop offset="1" stop-color="#CAAFEE"/>
</linearGradient>
<linearGradient id="paint17_linear_92_23864" x1="132.295" y1="116.91" x2="154.145" y2="116.91" gradientUnits="userSpaceOnUse">
<stop stop-color="#CCCCFF"/>
<stop offset="1" stop-color="#755CBB"/>
</linearGradient>
<linearGradient id="paint18_linear_92_23864" x1="90.7809" y1="163.585" x2="90.7809" y2="121.63" gradientUnits="userSpaceOnUse">
<stop stop-color="#9E8CEF"/>
<stop offset="1" stop-color="#DAC7F3"/>
</linearGradient>
<linearGradient id="paint19_linear_92_23864" x1="203.766" y1="136.181" x2="231.918" y2="136.181" gradientUnits="userSpaceOnUse">
<stop stop-color="#A999F1"/>
<stop offset="1" stop-color="#DAC7F3"/>
</linearGradient>
<linearGradient id="paint20_linear_92_23864" x1="115.705" y1="115.909" x2="115.705" y2="104.847" gradientUnits="userSpaceOnUse">
<stop offset="0.016" stop-color="#FFC2A9"/>
<stop offset="1" stop-color="#FF9595"/>
</linearGradient>
<linearGradient id="paint21_linear_92_23864" x1="109.118" y1="115.647" x2="109.118" y2="97.3357" gradientUnits="userSpaceOnUse">
<stop stop-color="#FFEADB"/>
<stop offset="0.994" stop-color="#C27CB6"/>
</linearGradient>
<linearGradient id="paint22_linear_92_23864" x1="105.076" y1="128.105" x2="105.076" y2="99.8749" gradientUnits="userSpaceOnUse">
<stop offset="0.016" stop-color="#FFC2A9"/>
<stop offset="1" stop-color="#FF9595"/>
</linearGradient>
<linearGradient id="paint23_linear_92_23864" x1="123.785" y1="119.294" x2="132.661" y2="119.294" gradientUnits="userSpaceOnUse">
<stop offset="0.016" stop-color="#D1A1D6"/>
<stop offset="0.994" stop-color="#BD89C4"/>
</linearGradient>
<linearGradient id="paint24_linear_92_23864" x1="208.232" y1="145.3" x2="208.232" y2="107.549" gradientUnits="userSpaceOnUse">
<stop offset="0.016" stop-color="#FFC2A9"/>
<stop offset="1" stop-color="#FF9595"/>
</linearGradient>
<linearGradient id="paint25_linear_92_23864" x1="227.249" y1="133.205" x2="227.249" y2="114.45" gradientUnits="userSpaceOnUse">
<stop stop-color="#FFEADB"/>
<stop offset="0.994" stop-color="#C27CB6"/>
</linearGradient>
<linearGradient id="paint26_linear_92_23864" x1="236.689" y1="126.731" x2="236.689" y2="118.324" gradientUnits="userSpaceOnUse">
<stop stop-color="#FFB0B0"/>
<stop offset="0.984" stop-color="#FFC2A9"/>
</linearGradient>
<linearGradient id="paint27_linear_92_23864" x1="243.038" y1="128.026" x2="243.038" y2="123.416" gradientUnits="userSpaceOnUse">
<stop stop-color="#FFB0B0"/>
<stop offset="0.984" stop-color="#FFC2A9"/>
</linearGradient>
<linearGradient id="paint28_linear_92_23864" x1="225.815" y1="132.765" x2="234.39" y2="132.765" gradientUnits="userSpaceOnUse">
<stop offset="0.016" stop-color="#D1A1D6"/>
<stop offset="0.994" stop-color="#BD89C4"/>
</linearGradient>
<linearGradient id="paint29_linear_92_23864" x1="189.133" y1="166.81" x2="189.133" y2="124.555" gradientUnits="userSpaceOnUse">
<stop stop-color="#CCCCFF"/>
<stop offset="1" stop-color="#755CBB"/>
</linearGradient>
<linearGradient id="paint30_linear_92_23864" x1="120.845" y1="122.23" x2="191.52" y2="122.23" gradientUnits="userSpaceOnUse">
<stop stop-color="#CCCCFF"/>
<stop offset="1" stop-color="#755CBB"/>
</linearGradient>
<linearGradient id="paint31_linear_92_23864" x1="183.153" y1="143.437" x2="196.662" y2="143.437" gradientUnits="userSpaceOnUse">
<stop stop-color="#CCEDFF"/>
<stop offset="1" stop-color="#755CBB"/>
</linearGradient>
<linearGradient id="paint32_linear_92_23864" x1="170.9" y1="165.856" x2="190.753" y2="165.856" gradientUnits="userSpaceOnUse">
<stop stop-color="#CCEDFF"/>
<stop offset="1" stop-color="#755CBB"/>
</linearGradient>
<linearGradient id="paint33_linear_92_23864" x1="171.82" y1="175.295" x2="193.03" y2="175.295" gradientUnits="userSpaceOnUse">
<stop stop-color="#CCEDFF"/>
<stop offset="1" stop-color="#755CBB"/>
</linearGradient>
<linearGradient id="paint34_linear_92_23864" x1="143.417" y1="156.93" x2="143.417" y2="133.125" gradientUnits="userSpaceOnUse">
<stop stop-color="#CCEDFF"/>
<stop offset="1" stop-color="#755CBB"/>
</linearGradient>
<linearGradient id="paint35_linear_92_23864" x1="142.172" y1="158.931" x2="142.172" y2="140.886" gradientUnits="userSpaceOnUse">
<stop stop-color="#CCEDFF"/>
<stop offset="1" stop-color="#755CBB"/>
</linearGradient>
<linearGradient id="paint36_linear_92_23864" x1="118.506" y1="135.86" x2="118.506" y2="122.23" gradientUnits="userSpaceOnUse">
<stop stop-color="#CCEDFF"/>
<stop offset="1" stop-color="#755CBB"/>
</linearGradient>
<linearGradient id="paint37_linear_92_23864" x1="137.995" y1="116.91" x2="143.489" y2="116.91" gradientUnits="userSpaceOnUse">
<stop stop-color="#CCEDFF"/>
<stop offset="1" stop-color="#755CBB"/>
</linearGradient>
<linearGradient id="paint38_linear_92_23864" x1="111.831" y1="156.93" x2="111.831" y2="131.66" gradientUnits="userSpaceOnUse">
<stop stop-color="#CCCCFF"/>
<stop offset="1" stop-color="#755CBB"/>
</linearGradient>
<linearGradient id="paint39_linear_92_23864" x1="207.703" y1="151.495" x2="207.703" y2="138.29" gradientUnits="userSpaceOnUse">
<stop stop-color="#CCCCFF"/>
<stop offset="1" stop-color="#755CBB"/>
</linearGradient>
<linearGradient id="paint40_linear_92_23864" x1="206.105" y1="150.905" x2="206.105" y2="140.81" gradientUnits="userSpaceOnUse">
<stop stop-color="#CCCCFF"/>
<stop offset="1" stop-color="#755CBB"/>
</linearGradient>
<linearGradient id="paint41_linear_92_23864" x1="123.036" y1="136.734" x2="123.036" y2="132.985" gradientUnits="userSpaceOnUse">
<stop stop-color="#CCEDFF"/>
<stop offset="1" stop-color="#755CBB"/>
</linearGradient>
<linearGradient id="paint42_linear_92_23864" x1="103.321" y1="148.163" x2="103.321" y2="127.675" gradientUnits="userSpaceOnUse">
<stop stop-color="#CCCCFF"/>
<stop offset="1" stop-color="#755CBB"/>
</linearGradient>
<linearGradient id="paint43_linear_92_23864" x1="175.931" y1="133.742" x2="175.931" y2="118.324" gradientUnits="userSpaceOnUse">
<stop stop-color="#CCEDFF"/>
<stop offset="1" stop-color="#755CBB"/>
</linearGradient>
<linearGradient id="paint44_linear_92_23864" x1="152.721" y1="131.658" x2="152.721" y2="110.378" gradientUnits="userSpaceOnUse">
<stop stop-color="#CCEDFF"/>
<stop offset="1" stop-color="#755CBB"/>
</linearGradient>
<linearGradient id="paint45_linear_92_23864" x1="159.45" y1="131.404" x2="194.992" y2="131.404" gradientUnits="userSpaceOnUse">
<stop stop-color="#8642A0"/>
<stop offset="1" stop-color="#6456C0"/>
</linearGradient>
<linearGradient id="paint46_linear_92_23864" x1="162.515" y1="104.645" x2="185.645" y2="104.645" gradientUnits="userSpaceOnUse">
<stop stop-color="#CCCCFF"/>
<stop offset="1" stop-color="#755CBB"/>
</linearGradient>
<linearGradient id="paint47_linear_92_23864" x1="200.325" y1="149.989" x2="200.325" y2="136.604" gradientUnits="userSpaceOnUse">
<stop stop-color="#CCCCFF"/>
<stop offset="1" stop-color="#755CBB"/>
</linearGradient>
<linearGradient id="paint48_linear_92_23864" x1="145.924" y1="165.09" x2="145.924" y2="124.555" gradientUnits="userSpaceOnUse">
<stop stop-color="#CCCCFF"/>
<stop offset="1" stop-color="#755CBB"/>
</linearGradient>
<linearGradient id="paint49_linear_92_23864" x1="155.751" y1="184.13" x2="155.751" y2="172.51" gradientUnits="userSpaceOnUse">
<stop stop-color="#CCCCFF"/>
<stop offset="1" stop-color="#755CBB"/>
</linearGradient>
<linearGradient id="paint50_linear_92_23864" x1="181.269" y1="180.938" x2="181.269" y2="175.295" gradientUnits="userSpaceOnUse">
<stop stop-color="#CCCCFF"/>
<stop offset="1" stop-color="#755CBB"/>
</linearGradient>
<linearGradient id="paint51_linear_92_23864" x1="153.563" y1="108.406" x2="153.563" y2="69.8039" gradientUnits="userSpaceOnUse">
<stop offset="0.016" stop-color="#FFC2A9"/>
<stop offset="1" stop-color="#FF9595"/>
</linearGradient>
<linearGradient id="paint52_linear_92_23864" x1="157.632" y1="92.8284" x2="157.632" y2="81.4472" gradientUnits="userSpaceOnUse">
<stop offset="0.016" stop-color="#FFC2A9"/>
<stop offset="1" stop-color="#FF9595"/>
</linearGradient>
<linearGradient id="paint53_linear_92_23864" x1="186.292" y1="98.0989" x2="187.221" y2="93.2627" gradientUnits="userSpaceOnUse">
<stop stop-color="#E1616A"/>
<stop offset="1" stop-color="#FF8883"/>
</linearGradient>
<linearGradient id="paint54_linear_92_23864" x1="170.117" y1="95.2314" x2="170.117" y2="70.3629" gradientUnits="userSpaceOnUse">
<stop stop-color="#FFEADB"/>
<stop offset="0.994" stop-color="#C27CB6"/>
</linearGradient>
<linearGradient id="paint55_linear_92_23864" x1="179.455" y1="85.0472" x2="179.455" y2="80.1209" gradientUnits="userSpaceOnUse">
<stop stop-color="#CF6074"/>
<stop offset="1" stop-color="#F37270"/>
</linearGradient>
<linearGradient id="paint56_linear_92_23864" x1="188.613" y1="86.6104" x2="188.613" y2="82.3237" gradientUnits="userSpaceOnUse">
<stop stop-color="#CF6074"/>
<stop offset="1" stop-color="#FF817F"/>
</linearGradient>
<linearGradient id="paint57_linear_92_23864" x1="180.488" y1="89.1049" x2="180.488" y2="79.4592" gradientUnits="userSpaceOnUse">
<stop stop-color="#FFEADB"/>
<stop offset="0.994" stop-color="#C27CB6"/>
</linearGradient>
<linearGradient id="paint58_linear_92_23864" x1="144.118" y1="108.891" x2="144.118" y2="62.075" gradientUnits="userSpaceOnUse">
<stop stop-color="#2E33A0"/>
<stop offset="1" stop-color="#0665A5"/>
</linearGradient>
<linearGradient id="paint59_linear_92_23864" x1="180.377" y1="79.41" x2="180.377" y2="68.61" gradientUnits="userSpaceOnUse">
<stop stop-color="#FFEADB"/>
<stop offset="0.994" stop-color="#8860C7"/>
</linearGradient>
<linearGradient id="paint60_linear_92_23864" x1="133.943" y1="108.891" x2="133.943" y2="62.075" gradientUnits="userSpaceOnUse">
<stop stop-color="#CCC2DB"/>
<stop offset="0.994" stop-color="#8860C7"/>
</linearGradient>
<linearGradient id="paint61_linear_92_23864" x1="182.849" y1="108.88" x2="182.849" y2="106.869" gradientUnits="userSpaceOnUse">
<stop stop-color="#776D7E"/>
<stop offset="1" stop-color="#9D68C2"/>
</linearGradient>
<linearGradient id="paint62_linear_92_23864" x1="188.8" y1="65.4349" x2="188.8" y2="63.9407" gradientUnits="userSpaceOnUse">
<stop stop-color="#1F77D1"/>
<stop offset="1" stop-color="#0686C9"/>
</linearGradient>
<linearGradient id="paint63_linear_92_23864" x1="178.627" y1="70.3549" x2="178.627" y2="65.9367" gradientUnits="userSpaceOnUse">
<stop stop-color="#1F77D1"/>
<stop offset="1" stop-color="#0686C9"/>
</linearGradient>
<linearGradient id="paint64_linear_92_23864" x1="192.14" y1="72.595" x2="192.14" y2="68.61" gradientUnits="userSpaceOnUse">
<stop stop-color="#1F77D1"/>
<stop offset="1" stop-color="#0686C9"/>
</linearGradient>
<linearGradient id="paint65_linear_92_23864" x1="164.332" y1="96.5909" x2="157.927" y2="88.7434" gradientUnits="userSpaceOnUse">
<stop stop-color="#FFEADB"/>
<stop offset="0.994" stop-color="#B060F4"/>
</linearGradient>
<linearGradient id="paint66_linear_92_23864" x1="165.699" y1="93.5842" x2="162.07" y2="89.1376" gradientUnits="userSpaceOnUse">
<stop stop-color="#FFEADB"/>
<stop offset="0.994" stop-color="#B060F4"/>
</linearGradient>
<linearGradient id="paint67_linear_92_23864" x1="179.121" y1="69.9752" x2="187.755" y2="69.9752" gradientUnits="userSpaceOnUse">
<stop stop-color="#1F77D1"/>
<stop offset="1" stop-color="#0686C9"/>
</linearGradient>
<linearGradient id="paint68_linear_92_23864" x1="191.299" y1="94.1412" x2="193.917" y2="94.1412" gradientUnits="userSpaceOnUse">
<stop stop-color="#1F77D1"/>
<stop offset="1" stop-color="#0686C9"/>
</linearGradient>
<linearGradient id="paint69_linear_92_23864" x1="188.065" y1="93.7124" x2="190.89" y2="93.7124" gradientUnits="userSpaceOnUse">
<stop stop-color="#1F77D1"/>
<stop offset="1" stop-color="#0686C9"/>
</linearGradient>
<linearGradient id="paint70_linear_92_23864" x1="208.898" y1="98.3012" x2="297.427" y2="98.3012" gradientUnits="userSpaceOnUse">
<stop stop-color="#9D68C2"/>
<stop offset="1" stop-color="#AEC2FF"/>
</linearGradient>
<linearGradient id="paint71_linear_92_23864" x1="213.723" y1="134.91" x2="213.723" y2="108.209" gradientUnits="userSpaceOnUse">
<stop stop-color="#CCEDFF"/>
<stop offset="1" stop-color="#9D68C2"/>
</linearGradient>
<linearGradient id="paint72_linear_92_23864" x1="266.556" y1="121.892" x2="266.556" y2="110.13" gradientUnits="userSpaceOnUse">
<stop stop-color="#CCEDFF"/>
<stop offset="1" stop-color="#9D68C2"/>
</linearGradient>
<linearGradient id="paint73_linear_92_23864" x1="280.433" y1="121.892" x2="280.433" y2="110.13" gradientUnits="userSpaceOnUse">
<stop stop-color="#CCEDFF"/>
<stop offset="1" stop-color="#9D68C2"/>
</linearGradient>
<linearGradient id="paint74_linear_92_23864" x1="252.447" y1="121.892" x2="252.447" y2="110.13" gradientUnits="userSpaceOnUse">
<stop stop-color="#CCEDFF"/>
<stop offset="1" stop-color="#9D68C2"/>
</linearGradient>
<linearGradient id="paint75_linear_92_23864" x1="126.541" y1="92.9937" x2="126.541" y2="80.6827" gradientUnits="userSpaceOnUse">
<stop stop-color="#D93DE3"/>
<stop offset="1" stop-color="#FF6DBA"/>
</linearGradient>
<linearGradient id="paint76_linear_92_23864" x1="71.2508" y1="92.9937" x2="71.2508" y2="80.6827" gradientUnits="userSpaceOnUse">
<stop stop-color="#A242EA"/>
<stop offset="1" stop-color="#FE117E"/>
</linearGradient>
<linearGradient id="paint77_linear_92_23864" x1="108.098" y1="220.551" x2="114.884" y2="166.516" gradientUnits="userSpaceOnUse">
<stop stop-color="#067EFF"/>
<stop offset="1" stop-color="#3E37A0"/>
</linearGradient>
<linearGradient id="paint78_linear_92_23864" x1="282.89" y1="91.6542" x2="282.89" y2="87.1857" gradientUnits="userSpaceOnUse">
<stop stop-color="#459FFF"/>
<stop offset="1" stop-color="#A96DFF"/>
</linearGradient>
<linearGradient id="paint79_linear_92_23864" x1="72.3469" y1="144.019" x2="72.3469" y2="138.457" gradientUnits="userSpaceOnUse">
<stop stop-color="#459FFF"/>
<stop offset="1" stop-color="#A96DFF"/>
</linearGradient>
<linearGradient id="paint80_linear_92_23864" x1="289.453" y1="91.6542" x2="289.453" y2="87.1857" gradientUnits="userSpaceOnUse">
<stop stop-color="#B31A8F"/>
<stop offset="1" stop-color="#FE117E"/>
</linearGradient>
<linearGradient id="paint81_linear_92_23864" x1="146.022" y1="106.363" x2="146.022" y2="103.203" gradientUnits="userSpaceOnUse">
<stop stop-color="#B31A8F"/>
<stop offset="1" stop-color="#FE117E"/>
</linearGradient>
<linearGradient id="paint82_linear_92_23864" x1="251.85" y1="176.081" x2="251.85" y2="172.922" gradientUnits="userSpaceOnUse">
<stop stop-color="#8642A0"/>
<stop offset="1" stop-color="#6456C0"/>
</linearGradient>
<linearGradient id="paint83_linear_92_23864" x1="87.7567" y1="191.666" x2="87.7567" y2="188.841" gradientUnits="userSpaceOnUse">
<stop stop-color="#8642A0"/>
<stop offset="1" stop-color="#6456C0"/>
</linearGradient>
<linearGradient id="paint84_linear_92_23864" x1="92.7016" y1="176.386" x2="92.7016" y2="153.054" gradientUnits="userSpaceOnUse">
<stop stop-color="#D906E3"/>
<stop offset="1" stop-color="#FF6DF9"/>
</linearGradient>
<linearGradient id="paint85_linear_92_23864" x1="251.709" y1="209.411" x2="251.709" y2="180.224" gradientUnits="userSpaceOnUse">
<stop stop-color="#D906E3"/>
<stop offset="1" stop-color="#FF6DF9"/>
</linearGradient>
<linearGradient id="paint86_linear_92_23864" x1="211.26" y1="195.553" x2="208.64" y2="173.066" gradientUnits="userSpaceOnUse">
<stop stop-color="#1852A0"/>
<stop offset="1" stop-color="#067ED3"/>
</linearGradient>
<linearGradient id="paint87_linear_92_23864" x1="209.997" y1="192.987" x2="209.997" y2="170.546" gradientUnits="userSpaceOnUse">
<stop stop-color="#1852A0"/>
<stop offset="1" stop-color="#067ED3"/>
</linearGradient>
<linearGradient id="paint88_linear_92_23864" x1="207.271" y1="194.348" x2="204.634" y2="171.708" gradientUnits="userSpaceOnUse">
<stop stop-color="#188DC1"/>
<stop offset="1" stop-color="#06BFE7"/>
</linearGradient>
<linearGradient id="paint89_linear_92_23864" x1="231.45" y1="77.1635" x2="237.165" y2="55.9402" gradientUnits="userSpaceOnUse">
<stop stop-color="#188DC1"/>
<stop offset="1" stop-color="#06BFE7"/>
</linearGradient>
<linearGradient id="paint90_linear_92_23864" x1="131.729" y1="50.4895" x2="136.047" y2="34.4509" gradientUnits="userSpaceOnUse">
<stop stop-color="#1852A0"/>
<stop offset="1" stop-color="#067ED3"/>
</linearGradient>
<linearGradient id="paint91_linear_92_23864" x1="80.6319" y1="114" x2="76.736" y2="99.5318" gradientUnits="userSpaceOnUse">
<stop stop-color="#188DC1"/>
<stop offset="1" stop-color="#06BFE7"/>
</linearGradient>
<linearGradient id="paint92_linear_92_23864" x1="148.613" y1="95.8162" x2="145.669" y2="84.8824" gradientUnits="userSpaceOnUse">
<stop stop-color="#1852A0"/>
<stop offset="1" stop-color="#067ED3"/>
</linearGradient>
<clipPath id="clip0_92_23864">
<rect width="300" height="200" fill="white" transform="translate(33 35)"/>
</clipPath>
</defs>
</svg>
