<svg width="1462" height="431" viewBox="0 0 1462 431" fill="none" xmlns="http://www.w3.org/2000/svg">
<path d="M580.817 88.7766C574.725 83.8576 566.994 81.0468 557.387 80.5783H519.9C508.654 81.0468 500.22 84.0919 495.065 89.7136C489.911 95.3353 487.333 101.66 487.333 109.155V180.364C487.333 188.094 491.316 193.95 498.814 197.464C504.905 200.274 510.997 201.68 516.854 201.68H551.296C561.136 201.68 563.479 203.32 563.713 203.32C564.182 203.788 565.354 204.725 565.354 208.004V272.654C565.354 277.105 564.416 280.618 562.776 282.961C561.136 285.303 556.919 285.772 553.873 285.772H525.289C516.62 285.772 514.746 283.664 514.512 283.429C513.34 282.024 512.169 278.979 512.169 272.889V227.68H487.099V280.853C487.099 287.646 490.379 293.736 496.939 298.889C503.031 303.808 510.763 306.619 520.369 307.088H557.856C569.102 306.619 577.537 303.574 582.691 297.952C587.846 292.33 590.423 286.006 590.423 278.51V201.211C590.423 197.464 589.017 193.95 586.44 191.373C584.331 189.265 581.988 187.157 579.411 185.517C576.834 183.878 573.788 182.707 570.742 181.77C567.462 180.833 564.885 180.364 562.776 180.364H522.478C515.683 180.364 513.809 179.427 513.574 179.661C512.871 178.256 512.403 176.148 512.403 173.337V114.777C512.403 110.327 513.106 106.579 514.746 104.236C515.917 102.597 519.197 101.66 523.883 101.66H552.467C560.668 101.66 562.776 103.534 563.245 104.236C564.885 106.345 565.588 110.092 565.588 115.011V159.751H590.657V106.813C590.657 100.02 587.377 93.9299 580.817 88.7766Z" fill="#2C2C2C"/>
<path d="M746.932 88.7766C740.84 83.8576 733.109 81.0468 723.503 80.5783H686.25C674.769 80.5783 666.335 83.6234 661.18 89.4794C656.026 95.1011 653.448 101.66 653.448 109.155V278.51C653.448 285.303 655.791 291.628 660.712 297.484C665.632 303.34 674.066 306.619 685.547 307.088H726.314H726.548C736.389 306.619 743.886 303.808 749.041 298.421C754.195 293.033 757.007 286.943 757.007 280.384V107.047C756.772 100.02 753.492 93.9299 746.932 88.7766ZM731.703 115.011V272.186C731.703 277.105 730.766 280.853 729.36 282.961C728.891 283.664 726.783 285.538 718.582 285.538H695.856C684.375 285.538 681.564 283.195 681.095 282.727C679.221 280.618 678.284 277.105 678.284 272.42V114.777C678.284 110.561 679.455 107.516 681.564 105.173C683.907 102.831 686.484 101.66 689.764 101.66H718.348C726.548 101.66 728.657 103.534 729.126 104.236C730.766 106.345 731.703 110.092 731.703 115.011Z" fill="#2C2C2C"/>
<path d="M912.813 88.7766C906.721 83.8576 898.989 81.0468 889.383 80.5783H852.131C842.056 80.5783 833.855 83.3891 827.998 89.2451C822.141 95.1011 819.329 101.66 819.329 109.155V278.51C819.329 285.303 821.672 291.628 826.592 297.484C831.513 303.34 839.713 306.619 851.428 307.088H892.195C902.035 306.619 909.533 303.808 914.922 298.421C920.076 293.033 922.888 286.943 922.888 280.384V227.68H897.818V272.42C897.818 277.339 896.881 281.087 895.475 283.195C895.006 283.898 892.898 285.772 884.697 285.772H862.908C851.896 285.772 848.616 283.664 847.679 282.727C845.57 280.618 844.633 277.105 844.633 272.654V114.777C844.633 110.561 845.805 107.516 847.913 105.173C850.256 102.831 852.833 101.66 856.113 101.66H884.697C893.366 101.66 895.241 103.768 895.475 104.002C896.647 105.408 897.818 108.453 897.818 114.543V159.517H922.888V106.813C922.653 100.02 919.373 93.9299 912.813 88.7766Z" fill="#2C2C2C"/>
<path d="M1093.22 80.5783H1065.57L1010.28 177.553V80.5783H985.444V306.853H1010.28V222.761L1023.87 200.274L1067.68 306.853H1093.92L1040.27 174.742L1093.22 80.5783Z" fill="#2C2C2C"/>
<path d="M1153.9 306.853H1257.69V285.538H1178.97V200.977H1248.79V179.896H1178.97V101.66H1257.69V80.5783H1153.9V306.853Z" fill="#2C2C2C"/>
<path d="M1320.25 80.5783V101.66H1359.61V306.853H1385.15V101.66H1424.51V80.5783H1320.25Z" fill="#2C2C2C"/>
<path d="M178.298 142.417C178.298 130.705 168.692 121.102 156.978 121.102C145.263 121.102 135.657 130.705 135.657 142.417C135.657 154.129 145.263 163.733 156.978 163.733C168.692 163.733 178.298 154.129 178.298 142.417Z" fill="#2C2C2C"/>
<path d="M299.429 142.417C299.429 130.705 289.823 121.102 278.108 121.102C266.393 121.102 256.787 130.705 256.787 142.417C256.787 154.129 266.393 163.733 278.108 163.733C289.823 163.733 299.429 154.129 299.429 142.417Z" fill="#2C2C2C"/>
<path d="M386.352 360.494H361.517V341.052H386.352C390.804 341.052 394.318 337.539 394.318 333.088C394.318 328.637 390.804 325.124 386.352 325.124H361.517V322.313C361.517 317.863 358.003 314.349 353.551 314.349C333.636 314.349 319.344 323.25 314.189 338.007C313.487 337.773 312.784 337.539 311.846 337.539H68.8827V65.587H362.454V252.978C362.454 260.24 368.546 266.33 375.809 266.33C383.072 266.33 389.164 260.474 389.164 252.978V52.2353C389.164 44.9739 383.072 38.8837 375.809 38.8837H55.5279C48.2647 38.8837 42.1731 44.7397 42.1731 52.2353V350.89C42.1731 358.152 48.0304 364.242 55.5279 364.242H311.846C312.549 364.242 313.252 364.008 313.955 363.773C319.812 380.873 337.15 387.431 353.551 387.431C358.003 387.431 361.517 383.918 361.517 379.467V376.656H386.352C390.804 376.656 394.318 373.143 394.318 368.692C394.318 364.242 390.804 360.494 386.352 360.494ZM345.585 370.801C336.916 369.161 327.779 364.242 327.779 350.89C327.779 337.304 336.916 332.62 345.585 330.98V370.801Z" fill="#2C2C2C"/>
<path d="M221.409 262.348C197.745 262.348 178.298 258.834 177.127 258.834C169.161 257.429 164.006 249.933 165.412 241.969C166.818 234.005 174.081 228.852 182.281 230.257C182.75 230.257 222.58 237.284 253.741 230.257C261.707 228.617 269.439 233.536 271.079 241.266C272.719 249.23 267.799 256.96 260.067 258.6C247.181 261.411 233.826 262.348 221.409 262.348Z" fill="#2C2C2C"/>
</svg>
